<svg width="2598" height="1948" xmlns="http://www.w3.org/2000/svg" xmlns:xlink="http://www.w3.org/1999/xlink" xml:space="preserve" overflow="hidden"><g transform="matrix(1 0 0 1 0 -157)"><rect x="0" y="157" width="2598" height="1948" fill="#F2F2F2"/><path d="M1867.64 1579.2 1867.64 1617.98 2013.85 1617.98 2013.85 1579.2ZM236.745 1561.07 279.236 1561.07 279.236 1616.73 474.19 1616.73 474.19 1651.75 236.745 1651.75ZM2111.31 1554.81 2153.8 1554.81 2153.8 1616.73 2348.76 1616.73 2348.76 1651.75 2111.31 1651.75ZM1825.15 1545.43 2056.34 1545.43 2056.34 1651.75 1825.15 1651.75ZM299.231 1463.5C289.234 1463.5 281.319 1465.59 275.486 1469.76 269.654 1473.92 266.738 1479.87 266.738 1487.58 266.738 1495.29 269.654 1501.23 275.486 1505.4 281.319 1509.57 289.234 1511.66 299.231 1511.66L321.101 1511.66C331.515 1511.66 339.534 1509.57 345.158 1505.4 350.781 1501.23 353.593 1495.29 353.593 1487.58 353.593 1479.87 350.781 1473.92 345.158 1469.76 339.534 1465.59 331.515 1463.5 321.101 1463.5ZM293.295 1429.73 327.037 1429.73C337.035 1429.73 346.251 1430.93 354.687 1433.33 363.122 1435.72 370.412 1439.32 376.556 1444.11 382.701 1448.91 387.492 1454.95 390.928 1462.25 394.365 1469.55 396.084 1477.99 396.084 1487.58 396.084 1497.38 394.365 1505.87 390.928 1513.07 387.492 1520.26 382.701 1526.25 376.556 1531.05 370.412 1535.84 363.122 1539.44 354.687 1541.83 346.251 1544.23 337.035 1545.43 327.037 1545.43L293.295 1545.43C283.297 1545.43 274.08 1544.23 265.645 1541.83 257.209 1539.44 249.92 1535.84 243.775 1531.05 237.631 1526.25 232.84 1520.26 229.403 1513.07 225.967 1505.87 224.248 1497.38 224.248 1487.58 224.248 1477.99 225.967 1469.55 229.403 1462.25 232.84 1454.95 237.631 1448.91 243.775 1444.11 249.92 1439.32 257.209 1435.72 265.645 1433.33 274.08 1430.93 283.297 1429.73 293.295 1429.73ZM2160.36 1410.65 2160.36 1494.77 2212.85 1494.77 2212.85 1410.65ZM1523.36 1382.82 1754.55 1382.82 1754.55 1601.4 1781.11 1601.4 1781.11 1637.37 1503.05 1637.37 1503.05 1601.4 1712.06 1601.4 1712.06 1419.1 1523.36 1419.1ZM818.452 1381.57 988.413 1381.57 988.413 1417.22 927.177 1417.22 927.177 1480.07C927.177 1493.63 928.583 1506.5 931.395 1518.69 934.207 1530.89 938.372 1542.09 943.892 1552.31 949.411 1562.52 956.128 1571.44 964.044 1579.05 971.959 1586.65 981.122 1592.65 991.537 1597.03L991.537 1635.49C983.206 1632.99 974.822 1629.34 966.387 1624.54 957.951 1619.75 949.88 1614.12 942.174 1607.66 934.467 1601.2 927.49 1594.21 921.241 1586.71 914.992 1579.2 909.89 1571.38 905.931 1563.25 896.351 1582.23 883.593 1597.91 867.659 1610.32 851.726 1622.72 834.282 1631.42 815.328 1636.43L815.328 1597.96C825.534 1594.84 834.855 1589.73 843.29 1582.64 851.726 1575.55 858.86 1566.95 864.691 1556.84 870.523 1546.73 875.053 1535.16 878.282 1522.13 881.511 1509.1 883.124 1495.08 883.124 1480.07L883.124 1417.22 818.452 1417.22ZM1129.61 1379.7 1362.37 1379.7 1362.37 1415.34 1172.1 1415.34 1172.1 1513.22 1367.06 1513.22 1367.06 1548.87 1270.52 1548.87 1270.52 1606.41 1384.24 1606.41 1384.24 1642.37 1106.18 1642.37 1106.18 1606.41 1226.15 1606.41 1226.15 1548.87 1129.61 1548.87ZM2091.32 1376.88 2281.27 1376.88 2281.27 1410.65 2255.34 1410.65 2255.34 1494.77 2284.4 1494.77 2284.4 1528.54 2088.19 1528.54 2088.19 1494.77 2117.87 1494.77 2117.87 1410.65 2091.32 1410.65ZM1804.84 1376.88 1970.11 1376.88 1970.11 1465.69 1847.33 1465.69 1847.33 1491.96 1995.11 1491.96 1995.11 1525.1 1804.84 1525.1 1804.84 1433.48 1927.62 1433.48 1927.62 1410.03 1804.84 1410.03ZM532.285 1375.01 772.855 1375.01 772.855 1479.45 793.162 1479.45 793.162 1512.91 673.19 1512.91 673.19 1548.56 772.855 1548.56 772.855 1653 730.365 1653 730.365 1583.58 532.285 1583.58 532.285 1548.56 628.826 1548.56 628.826 1512.91 515.102 1512.91 515.102 1479.45 730.365 1479.45 730.365 1410.03 532.285 1410.03ZM2300.02 1373.75 2342.51 1373.75 2342.51 1432.86 2380 1432.86 2380 1471.01 2342.51 1471.01 2342.51 1578.26 2300.02 1578.26ZM2013.85 1373.75 2056.34 1373.75 2056.34 1534.49 2013.85 1534.49ZM1025.9 1373.75 1068.39 1373.75 1068.39 1653 1025.9 1653ZM425.452 1373.75 467.942 1373.75 467.942 1450.05 505.434 1450.05 505.434 1488.2 467.942 1488.2 467.942 1578.26 425.452 1578.26ZM287.671 1365 332.661 1365 332.661 1387.83 402.333 1387.83 402.333 1420.04 218 1420.04 218 1387.83 287.671 1387.83Z" fill="#B100FF" fill-rule="evenodd"/><path d="M1152.05 757.762 1152.05 757.795 1299 824.584 1386.84 784.662 1345.19 856.788 1299.04 877.768 1299.04 877.8 1299 877.784 1298.96 877.8 1298.96 877.768 1152.02 810.978 1054.01 855.523 1054.01 1121.52 1151.98 1076.99 1151.98 1076.96 1152.02 1076.98 1152.05 1076.96 1152.05 1076.99 1299 1143.78 1445.95 1076.99 1445.95 1076.96 1445.98 1076.98 1446.02 1076.96 1446.02 1076.99 1543.92 1121.49 1543.92 855.491 1519.66 844.467 1543.99 802.326 1593 824.601 1593 877.8 1592.93 877.768 1592.93 1143.77 1593 1143.8 1593 1197 1445.98 1130.18 1299.04 1196.97 1299.04 1197 1299 1196.98 1298.96 1197 1298.96 1196.97 1152.02 1130.18 1005 1197 1005 1143.8 1005 1143.8 1005 877.8 1005 877.8 1005 824.6 1151.98 757.794 1151.98 757.762 1152.02 757.778ZM1529.79 609 1593 645.492 1392.3 993.121 1392.3 993.121 1329.23 1029.36 1329.09 956.629 1329.09 956.629Z" fill="#B100FF" fill-rule="evenodd"/></g></svg>