<svg width="2598" height="1948" xmlns="http://www.w3.org/2000/svg" xmlns:xlink="http://www.w3.org/1999/xlink" xml:space="preserve" overflow="hidden"><g transform="matrix(1 0 0 1 0 -157)"><rect x="0" y="157" width="2598" height="1948" fill="#FEFAF6"/><g><g><g><path d="M625.659 305.126 919.357 370.792C919.327 372.198 919.292 373.604 919.262 375.01L923.731 377.124C932.878 380.664 943.902 382.731 955.773 382.731 967.643 382.731 978.667 380.664 987.814 377.124L992.283 375.01C992.253 373.604 992.218 372.198 992.188 370.792L1285.88 305.126 1309.76 728.967 1010.76 775.325 1010.76 775.325 1001.74 776.723 1010.76 775.325 1008.58 779.355C999.876 791.139 979.509 799.409 955.773 799.409 932.036 799.409 911.669 791.139 902.969 779.355L900.785 775.325 601.783 728.967 625.659 305.126Z" stroke="#FEFAF6" stroke-width="99.5372" stroke-linecap="round" stroke-linejoin="round" stroke-miterlimit="10" fill="#FEFAF6" fill-rule="evenodd" transform="matrix(1.00069 0 0 1 342.57 427.859)"/><path d="M625.659 305.126 919.357 370.792C919.327 372.198 919.292 373.604 919.262 375.01L923.731 377.124C932.878 380.664 943.902 382.731 955.773 382.731 967.643 382.731 978.667 380.664 987.814 377.124L992.283 375.01C992.253 373.604 992.218 372.198 992.188 370.792L1285.88 305.126 1309.76 728.967 1010.76 775.325 1010.76 775.325 1001.74 776.723 1010.76 775.325 1008.58 779.355C999.876 791.139 979.509 799.409 955.773 799.409 932.036 799.409 911.669 791.139 902.969 779.355L900.785 775.325 601.783 728.967 625.659 305.126Z" stroke="#FF7B63" stroke-width="79.6295" stroke-linecap="round" stroke-linejoin="round" stroke-miterlimit="10" fill="#FF7B63" fill-rule="evenodd" transform="matrix(1.00069 0 0 1 342.57 427.859)"/><path d="M625.659 295.136 919.357 360.86C919.327 362.267 919.292 363.674 919.262 365.081L923.731 367.197C932.878 370.74 943.902 372.809 955.773 372.809 967.643 372.809 978.667 370.74 987.814 367.197L992.283 365.081C992.253 363.674 992.218 362.267 992.188 360.86L1285.88 295.136 1309.76 719.351 1010.76 765.747 1010.76 765.747 1001.74 767.15 1010.76 765.747 1008.58 769.782C999.876 781.579 979.509 789.853 955.773 789.853 932.036 789.853 911.669 781.579 902.969 769.782L900.785 765.747 601.783 719.351 625.659 295.136Z" stroke="#FEFAF6" stroke-width="29.8611" stroke-linecap="round" stroke-linejoin="round" stroke-miterlimit="10" fill="none" fill-rule="evenodd" transform="matrix(1.00069 0 0 1 342.57 427.859)"/><path d="M919.144 365.066 923.631 367.181C932.805 370.725 943.867 372.794 955.773 372.794 967.678 372.794 978.741 370.725 987.914 367.181L992.401 365.066 1001.17 737.046 1001.88 767.146 1010.93 765.747 1008.74 769.782C1000.01 781.579 979.583 789.853 955.773 789.853 931.962 789.853 911.53 781.579 902.8 769.782L900.611 765.747 909.663 767.146 910.371 737.046Z" stroke="#FF7B63" stroke-width="9.95372" stroke-linecap="round" stroke-linejoin="round" stroke-miterlimit="10" fill="#FF7B63" fill-rule="evenodd" transform="matrix(1.00069 0 0 1 342.57 427.859)"/><path d="M625.654 295.136 601.783 719.455 909.736 767.268 919.288 360.876 625.654 295.136Z" stroke="#FF7B63" stroke-width="9.95372" stroke-linecap="round" stroke-linejoin="round" stroke-miterlimit="10" fill="#FEFAF6" fill-rule="evenodd" transform="matrix(1.00069 0 0 1 342.57 427.859)"/><path d="M23.8726 0 0 424.32 307.956 472.131 317.505 65.7396 23.8726 0Z" stroke="#FF7B63" stroke-width="9.95372" stroke-linecap="round" stroke-linejoin="round" stroke-miterlimit="10" fill="#FEFAF6" fill-rule="evenodd" transform="matrix(-1.00069 0 0 1 1653.23 722.995)"/><path d="M1286.39 741.298C1279.02 730.813 1281.97 709.656 1299.51 701.894 1317.04 694.133 1321.91 700.552 1336.47 687.565 1336.67 706.594 1333.14 720.775 1319.18 728.984 1317.17 751.371 1293.77 751.783 1286.39 741.298Z" stroke="#FEFAF6" stroke-width="19.9074" stroke-linecap="round" stroke-linejoin="round" stroke-miterlimit="10" fill="none" fill-rule="evenodd" transform="matrix(1.00069 0 0 1 342.57 427.859)"/><path d="M1286.39 741.298C1279.02 730.813 1281.97 709.656 1299.51 701.894 1317.04 694.133 1321.91 700.552 1336.47 687.565 1336.67 706.594 1333.14 720.775 1319.18 728.984 1317.17 751.371 1293.77 751.783 1286.39 741.298Z" fill="#FF7B63" fill-rule="evenodd" transform="matrix(1.00069 0 0 1 342.57 427.859)"/><path d="M3.77536 53.7309C-3.60168 43.2459-0.64589 22.0894 16.8903 14.3282 34.4265 6.5671 39.2951 12.985 53.8508 0 54.0493 19.0297 50.5224 33.2086 36.5628 41.4176 34.5508 63.8055 11.1524 64.2159 3.77536 53.7309Z" stroke="#FEFAF6" stroke-width="19.9074" stroke-linecap="round" stroke-linejoin="round" stroke-miterlimit="10" fill="none" fill-rule="evenodd" transform="matrix(-1.00069 0 0 1 971.497 1115.42)"/><path d="M3.77536 53.7309C-3.60168 43.2459-0.64589 22.0894 16.8903 14.3282 34.4265 6.5671 39.2951 12.985 53.8508 0 54.0493 19.0297 50.5224 33.2086 36.5628 41.4176 34.5508 63.8055 11.1524 64.2159 3.77536 53.7309Z" fill="#FF7B63" fill-rule="evenodd" transform="matrix(-1.00069 0 0 1 971.497 1115.42)"/><path d="M625.168 294.919 686.697 308.762 621.545 359.636Z" fill="#FF7B63" fill-rule="evenodd" transform="matrix(1.00069 0 0 1 342.57 427.859)"/><path d="M3.62322 0 0 64.7172 65.1515 13.8425Z" fill="#FF7B63" fill-rule="evenodd" transform="matrix(-1.00069 0 0 1 1633.02 722.778)"/><path d="M834.708 579.992 836.906 577.794 997.378 417.321C1008.26 428.205 1025.91 428.205 1036.79 417.321L1036.79 417.321 1042.91 408.101C1047 398.036 1044.96 386.069 1036.79 377.906L1067.85 346.85C1089.76 324.936 1125.29 324.936 1147.21 346.85L1216 415.648C1237.92 437.562 1237.92 473.091 1216 495.008L1184.95 526.064C1176.79 517.898 1164.82 515.861 1154.75 519.939L1145.54 526.064 1145.54 526.064 1145.54 526.064C1134.65 536.948 1134.65 554.596 1145.54 565.476L985.06 725.953 982.863 728.151C960.95 750.063 925.416 750.063 903.504 728.151L834.708 659.351C812.791 637.438 812.791 601.909 834.708 579.992Z" stroke="#FEFAF6" stroke-width="29.8611" stroke-linecap="round" stroke-linejoin="round" stroke-miterlimit="10" fill="#FF7B63" fill-rule="evenodd" transform="matrix(1.00069 0 0 1 342.57 427.859)"/><path d="M834.704 579.992 836.906 577.794 985.06 725.953 982.863 728.151C960.95 750.063 925.416 750.063 903.504 728.151L834.704 659.351C812.791 637.438 812.791 601.909 834.704 579.992Z" stroke="#FF7B63" stroke-width="9.95372" stroke-linecap="round" stroke-linejoin="round" stroke-miterlimit="10" fill="#FF7B63" fill-rule="evenodd" transform="matrix(1.00069 0 0 1 342.57 427.859)"/><path d="M1036.79 377.906 1067.85 346.85C1089.76 324.936 1125.29 324.936 1147.21 346.85L1216 415.648C1237.92 437.562 1237.92 473.091 1216 495.008L1184.95 526.064C1176.79 517.898 1164.82 515.861 1154.75 519.939L1145.54 526.064 1131.99 512.516 1134.58 508.603C1136.32 504.333 1135.45 499.26 1131.99 495.799 1128.52 492.337 1123.45 491.473 1119.18 493.201L1115.27 495.799 1099.52 480.049 1102.12 476.14C1103.85 471.871 1102.98 466.797 1099.52 463.336 1096.06 459.87 1090.98 459.005 1086.71 460.738L1082.8 463.331 1067.06 447.586 1069.65 443.677C1071.39 439.408 1070.52 434.332 1067.06 430.869 1063.59 427.407 1058.52 426.542 1054.25 428.273L1050.34 430.869 1036.79 417.321 1042.91 408.101C1047 398.036 1044.96 386.069 1036.79 377.906Z" stroke="#FF7B63" stroke-width="9.95372" stroke-linecap="round" stroke-linejoin="round" stroke-miterlimit="10" fill="#FF7B63" fill-rule="evenodd" transform="matrix(1.00069 0 0 1 342.57 427.859)"/><path d="M836.906 577.794 997.378 417.321C1008.26 428.205 1025.91 428.205 1036.79 417.321L1036.79 417.321 1050.34 430.869 1050.34 430.869C1045.73 435.486 1045.73 442.969 1050.34 447.586 1054.96 452.204 1062.44 452.204 1067.06 447.586L1067.06 447.586 1082.8 463.331 1082.8 463.336C1078.19 467.948 1078.19 475.432 1082.8 480.049 1087.42 484.666 1094.91 484.666 1099.52 480.049L1099.52 480.049 1115.27 495.799 1115.27 495.799C1110.66 500.416 1110.66 507.899 1115.27 512.516 1119.88 517.129 1127.37 517.129 1131.99 512.516L1131.99 512.512 1145.54 526.064 1145.54 526.064C1134.65 536.948 1134.65 554.596 1145.54 565.476L985.06 725.953Z" stroke="#FF7B63" stroke-width="9.95372" stroke-linecap="round" stroke-linejoin="round" stroke-miterlimit="10" fill="#FEFAF6" fill-rule="evenodd" transform="matrix(1.00069 0 0 1 342.57 427.859)"/><path d="M716.888 532.87 718.443 530.177 831.915 333.64C845.245 341.336 862.289 336.769 869.985 323.438L869.985 323.438 873.512 312.948C874.85 302.17 869.781 291.139 859.787 285.367L881.747 247.331C897.24 220.491 931.562 211.295 958.4 226.791L1042.66 275.439C1069.5 290.934 1078.7 325.254 1063.2 352.093L1041.24 390.129C1031.24 384.357 1019.16 385.483 1010.49 392.031L1003.17 400.33 1003.17 400.33 1003.17 400.331C995.471 413.661 1000.04 430.706 1013.37 438.4L899.899 634.94 898.344 637.633C882.846 664.476 848.529 673.671 821.686 658.173L737.428 609.527C710.59 594.03 701.391 559.712 716.888 532.87Z" stroke="#FEFAF6" stroke-width="29.8611" stroke-linecap="round" stroke-linejoin="round" stroke-miterlimit="10" fill="#FF7B63" fill-rule="evenodd" transform="matrix(1.00069 0 0 1 342.57 427.859)"/><path d="M716.888 532.87 718.443 530.177 899.899 634.94 898.344 637.633C882.846 664.476 848.529 673.671 821.686 658.173L737.428 609.527C710.59 594.03 701.391 559.712 716.888 532.87Z" stroke="#FF7B63" stroke-width="9.95372" stroke-linecap="round" stroke-linejoin="round" stroke-miterlimit="10" fill="#FF7B63" fill-rule="evenodd" transform="matrix(1.00069 0 0 1 342.57 427.859)"/><path d="M859.787 285.367 881.747 247.331C897.24 220.491 931.562 211.295 958.4 226.791L1042.66 275.439C1069.5 290.934 1078.7 325.254 1063.2 352.093L1041.24 390.129C1031.24 384.357 1019.16 385.483 1010.49 392.03L1003.17 400.33 986.576 390.75 988.07 386.301C988.639 381.73 986.489 377.052 982.25 374.603 978.007 372.155 972.881 372.633 969.207 375.41L966.101 378.93 946.812 367.795 948.311 363.346C948.879 358.774 946.729 354.096 942.486 351.648 938.247 349.199 933.122 349.677 929.447 352.454L926.341 355.974 907.052 344.839 908.551 340.39C909.115 335.818 906.965 331.14 902.726 328.692 898.487 326.244 893.362 326.721 889.687 329.498L886.582 333.018 869.985 323.438 873.512 312.948C874.85 302.17 869.781 291.139 859.787 285.367Z" stroke="#FF7B63" stroke-width="9.95372" stroke-linecap="round" stroke-linejoin="round" stroke-miterlimit="10" fill="#FF7B63" fill-rule="evenodd" transform="matrix(1.00069 0 0 1 342.57 427.859)"/><path d="M718.443 530.177 831.915 333.64C845.245 341.336 862.289 336.769 869.985 323.438L869.985 323.438 886.582 333.018 886.582 333.018C883.315 338.672 885.253 345.901 890.908 349.166 896.558 352.43 903.79 350.492 907.052 344.839L907.052 344.839 926.341 355.974 926.341 355.974C923.075 361.628 925.012 368.857 930.667 372.121 936.323 375.385 943.55 373.448 946.816 367.795L946.816 367.795 966.101 378.93 966.101 378.93C962.839 384.584 964.772 391.813 970.427 395.077 976.082 398.341 983.31 396.404 986.576 390.75L986.576 390.75 1003.17 400.33 1003.17 400.331C995.471 413.661 1000.04 430.706 1013.37 438.4L899.899 634.94Z" stroke="#FF7B63" stroke-width="9.95372" stroke-linecap="round" stroke-linejoin="round" stroke-miterlimit="10" fill="#FEFAF6" fill-rule="evenodd" transform="matrix(1.00069 0 0 1 342.57 427.859)"/></g></g></g><path d="M1610.56 1561.53C1603.28 1561.53 1597.58 1563.48 1593.47 1567.36 1589.36 1571.25 1587.3 1575.97 1587.3 1581.52 1587.3 1587.07 1589.44 1591.75 1593.71 1595.55 1597.98 1599.36 1603.6 1601.26 1610.56 1601.26 1617.36 1601.26 1622.9 1599.36 1627.17 1595.55 1631.44 1591.75 1633.57 1587.07 1633.57 1581.52 1633.57 1575.97 1631.44 1571.25 1627.17 1567.36 1622.9 1563.48 1617.36 1561.53 1610.56 1561.53ZM387.904 1559.39C390.119 1559.39 391.859 1560.03 393.125 1561.3 394.39 1562.57 395.023 1564.31 395.023 1566.53L395.023 1583.42C395.023 1585.64 394.39 1587.35 393.125 1588.54 391.859 1589.73 390.119 1590.4 387.904 1590.56L225.119 1593.65C222.904 1593.81 221.164 1593.21 219.898 1591.87 218.633 1590.52 218 1588.73 218 1586.51L218 1567.01C218 1564.79 218.633 1563.04 219.898 1561.77 221.164 1560.5 222.904 1559.87 225.119 1559.87ZM1894.42 1555.35C1886.83 1555.35 1880.82 1557.45 1876.39 1561.65 1871.96 1565.86 1869.74 1571.05 1869.74 1577.24 1869.74 1583.42 1872.04 1588.58 1876.63 1592.7 1881.21 1596.82 1887.15 1598.88 1894.42 1598.88 1901.54 1598.88 1907.4 1596.82 1911.98 1592.7 1916.73 1588.58 1919.1 1583.42 1919.1 1577.24 1919.1 1571.05 1916.77 1565.86 1912.1 1561.65 1907.44 1557.45 1901.54 1555.35 1894.42 1555.35ZM2104.73 1554.16C2097.13 1554.16 2091.16 1556.26 2086.81 1560.46 2082.46 1564.67 2080.29 1569.86 2080.29 1576.05 2080.29 1582.23 2082.54 1587.39 2087.05 1591.51 2091.56 1595.63 2097.45 1597.69 2104.73 1597.69 2111.85 1597.69 2117.62 1595.63 2122.05 1591.51 2126.64 1587.39 2128.93 1582.23 2128.93 1576.05 2128.93 1569.86 2126.68 1564.67 2122.17 1560.46 2117.66 1556.26 2111.85 1554.16 2104.73 1554.16ZM454.13 1545.36 576.101 1545.36C580.214 1545.36 583.655 1546.51 586.423 1548.81 589.191 1551.11 590.497 1554.71 590.339 1559.63 590.18 1564.71 590.062 1569.42 589.983 1573.79 589.904 1578.15 589.745 1582.47 589.508 1586.75 589.271 1591.03 588.954 1595.32 588.559 1599.6 588.163 1603.88 587.728 1608.4 587.254 1613.16 586.937 1615.38 586.225 1617.12 585.118 1618.39 584.011 1619.66 582.349 1620.29 580.135 1620.29L556.405 1620.29C554.19 1620.29 552.45 1619.66 551.184 1618.39 549.919 1617.12 549.286 1615.38 549.286 1613.16L549.286 1578.19 454.13 1579.85C450.175 1579.85 448.197 1577.87 448.197 1573.91L448.197 1551.31C448.197 1547.34 450.175 1545.36 454.13 1545.36ZM1451.31 1537.03C1455.42 1537.03 1458.86 1538.18 1461.63 1540.48 1464.4 1542.78 1465.71 1546.39 1465.55 1551.31 1465.23 1561.46 1464.92 1571.88 1464.6 1582.59 1464.28 1593.29 1463.57 1603.48 1462.46 1613.16 1462.15 1615.38 1461.44 1617.12 1460.33 1618.39 1459.22 1619.66 1457.56 1620.29 1455.35 1620.29L1431.62 1620.29C1429.4 1620.29 1427.66 1619.66 1426.4 1618.39 1425.13 1617.12 1424.5 1615.38 1424.5 1613.16L1424.5 1571.29 1328.87 1573.91C1324.91 1573.91 1322.93 1571.92 1322.93 1567.96L1322.93 1545.36C1322.93 1541.39 1324.91 1539.41 1328.87 1539.41ZM1609.13 1530.61C1617.52 1530.61 1625.23 1531.96 1632.27 1534.65 1639.31 1537.35 1645.32 1541 1650.3 1545.6 1655.29 1550.19 1659.16 1555.59 1661.93 1561.77 1664.7 1567.96 1666.08 1574.54 1666.08 1581.52 1666.08 1588.5 1664.66 1595 1661.81 1601.03 1659.12 1607.05 1655.29 1612.29 1650.3 1616.73 1645.32 1621.17 1639.31 1624.66 1632.27 1627.19 1625.23 1629.73 1617.52 1631 1609.13 1631 1600.59 1631 1592.8 1629.73 1585.76 1627.19 1578.72 1624.66 1572.67 1621.17 1567.61 1616.73 1562.54 1612.29 1558.63 1607.05 1555.86 1601.03 1553.09 1595 1551.71 1588.5 1551.71 1581.52 1551.71 1574.54 1553.09 1567.96 1555.86 1561.77 1558.63 1555.59 1562.54 1550.19 1567.61 1545.6 1572.67 1541 1578.72 1537.35 1585.76 1534.65 1592.8 1531.96 1600.59 1530.61 1609.13 1530.61ZM1893 1524.42C1901.54 1524.42 1909.41 1525.85 1916.61 1528.71 1923.81 1531.56 1930.02 1535.37 1935.24 1540.12 1940.46 1544.88 1944.49 1550.47 1947.34 1556.9 1950.19 1563.32 1951.61 1570.1 1951.61 1577.24 1951.61 1584.37 1950.19 1591.03 1947.34 1597.22 1944.49 1603.56 1940.46 1609.03 1935.24 1613.63 1930.02 1618.23 1923.81 1621.88 1916.61 1624.58 1909.41 1627.27 1901.54 1628.62 1893 1628.62 1884.3 1628.62 1876.35 1627.27 1869.15 1624.58 1861.95 1621.88 1855.74 1618.23 1850.52 1613.63 1845.3 1609.03 1841.27 1603.6 1838.42 1597.34 1835.57 1591.07 1834.15 1584.37 1834.15 1577.24 1834.15 1570.1 1835.57 1563.32 1838.42 1556.9 1841.27 1550.47 1845.3 1544.88 1850.52 1540.12 1855.74 1535.37 1861.95 1531.56 1869.15 1528.71 1876.35 1525.85 1884.3 1524.42 1893 1524.42ZM2103.3 1523.23C2111.85 1523.23 2119.72 1524.66 2126.92 1527.52 2134.11 1530.37 2140.24 1534.18 2145.31 1538.93 2150.37 1543.69 2154.32 1549.28 2157.17 1555.71 2160.02 1562.13 2161.44 1568.91 2161.44 1576.05 2161.44 1583.18 2160.02 1589.84 2157.17 1596.03 2154.32 1602.37 2150.37 1607.84 2145.31 1612.44 2140.24 1617.04 2134.11 1620.69 2126.92 1623.39 2119.72 1626.08 2111.85 1627.43 2103.3 1627.43 2094.6 1627.43 2086.65 1626.08 2079.46 1623.39 2072.26 1620.69 2066.05 1617.04 2060.83 1612.44 2055.77 1607.84 2051.81 1602.41 2048.96 1596.15 2046.12 1589.88 2044.69 1583.18 2044.69 1576.05 2044.69 1568.91 2046.12 1562.13 2048.96 1555.71 2051.81 1549.28 2055.81 1543.69 2060.95 1538.93 2066.09 1534.18 2072.26 1530.37 2079.46 1527.52 2086.65 1524.66 2094.6 1523.23 2103.3 1523.23ZM787.295 1519.67C790.775 1519.51 793.465 1520.38 795.363 1522.28 797.261 1524.19 798.132 1526.88 797.973 1530.37L796.549 1572.24C796.391 1575.41 795.363 1577.95 793.465 1579.85 791.566 1581.76 789.035 1582.79 785.871 1582.95L699.02 1583.66 699.02 1593.65 792.753 1594.84C794.968 1594.84 796.708 1595.47 797.973 1596.74 799.239 1598.01 799.872 1599.76 799.872 1601.98L799.634 1613.4C799.634 1615.62 799.001 1617.36 797.736 1618.63 796.47 1619.9 794.73 1620.53 792.516 1620.53L668.646 1621.25C665.483 1621.25 662.951 1620.26 661.053 1618.27 659.155 1616.29 658.126 1613.71 657.968 1610.54L657.256 1571.53C657.098 1568.35 658.047 1565.82 660.104 1563.91 662.16 1562.01 664.771 1560.98 667.935 1560.82L755.26 1559.16 755.497 1548.21 662.714 1549.64C660.499 1549.64 658.759 1548.97 657.493 1547.62 656.228 1546.27 655.595 1544.56 655.595 1542.5L655.595 1528.47C655.595 1523.71 657.968 1521.33 662.714 1521.33ZM1475.52 1487.55C1477.73 1487.55 1479.47 1488.18 1480.74 1489.45 1482 1490.72 1482.63 1492.47 1482.63 1494.69L1482.63 1512.77C1482.63 1514.99 1482 1516.69 1480.74 1517.88 1479.47 1519.07 1477.73 1519.74 1475.52 1519.9L1312.73 1523.47C1310.52 1523.63 1308.77 1523.04 1307.51 1521.69 1306.24 1520.34 1305.61 1518.55 1305.61 1516.33L1305.61 1495.64C1305.61 1493.42 1306.24 1491.67 1307.51 1490.4 1308.77 1489.14 1310.52 1488.5 1312.73 1488.5ZM1169.2 1454.72 1136.7 1455.2 1137.88 1531.56 1169.2 1531.32ZM2205.58 1417.61 2297.89 1417.61C2302 1417.61 2305.4 1418.76 2308.09 1421.06 2310.78 1423.36 2312.13 1426.97 2312.13 1431.88L2312.13 1436.64C2312.13 1448.69 2311.1 1460.75 2309.04 1472.8 2306.98 1484.85 2304.26 1496.59 2300.85 1508.01 2297.45 1519.43 2293.46 1530.29 2288.87 1540.6 2284.28 1550.91 2279.46 1560.27 2274.4 1568.67 2271.55 1573.27 2267.91 1574.54 2263.48 1572.48L2245.92 1564.87C2244.18 1564.07 2242.99 1562.84 2242.36 1561.18 2241.73 1559.51 2241.96 1557.57 2243.07 1555.35 2250.98 1539.65 2257.27 1523.11 2261.94 1505.75 2266.6 1488.38 2269.25 1472.09 2269.89 1456.86L2205.58 1456.86C2201.62 1456.86 2199.65 1454.88 2199.65 1450.91L2199.65 1423.56C2199.65 1419.59 2201.62 1417.61 2205.58 1417.61ZM1194.83 1417.13C1199.26 1417.13 1202.74 1418.4 1205.27 1420.94 1207.8 1423.48 1208.99 1426.97 1208.83 1431.41L1206.93 1553.92C1206.78 1558.36 1205.47 1561.85 1203.02 1564.39 1200.57 1566.93 1197.13 1568.2 1192.7 1568.2L1114.39 1569.15C1109.96 1569.15 1106.48 1567.88 1103.95 1565.34 1101.42 1562.8 1100.15 1559.31 1100.15 1554.87L1097.07 1431.88C1096.91 1427.44 1098.13 1423.95 1100.74 1421.41 1103.35 1418.88 1106.87 1417.61 1111.3 1417.61ZM957.714 1416.66C960.245 1416.66 962.262 1417.41 963.765 1418.92 965.268 1420.42 966.019 1422.45 966.019 1424.98L966.019 1442.11C966.019 1444.65 965.268 1446.67 963.765 1448.18 962.262 1449.68 960.245 1450.44 957.714 1450.44L917.373 1450.91 917.611 1474.94 951.544 1474.46C953.759 1474.46 955.42 1475.18 956.527 1476.61 957.635 1478.03 958.188 1479.7 958.188 1481.6L958.188 1500.63C958.188 1503.01 957.476 1504.8 956.053 1505.99 954.629 1507.18 952.73 1507.77 950.357 1507.77L918.085 1508.48 918.56 1534.18C926.786 1534.49 934.775 1534.45 942.527 1534.06 950.278 1533.66 958.347 1532.83 966.731 1531.56 969.262 1531.24 971.121 1531.4 972.307 1532.04 973.494 1532.67 974.245 1534.1 974.562 1536.32L978.121 1553.92C978.596 1556.46 978.358 1558.32 977.409 1559.51 976.46 1560.7 975.036 1561.61 973.138 1562.25 968.392 1563.68 963.092 1564.98 957.239 1566.17 951.386 1567.36 945.256 1568.31 938.849 1569.03 932.442 1569.74 925.877 1570.26 919.153 1570.57 912.43 1570.89 905.746 1570.97 899.101 1570.81 888.186 1570.5 882.649 1565.02 882.491 1554.4L879.643 1433.79C879.485 1428.23 880.988 1424.07 884.152 1421.3 887.316 1418.52 891.35 1417.13 896.254 1417.13ZM993.783 1414.52 1020.36 1414.52C1025.11 1414.52 1027.4 1416.89 1027.24 1421.65L1024.39 1587.7C1024.39 1592.46 1022.02 1594.84 1017.28 1594.84L996.393 1594.84C991.647 1594.84 989.274 1592.46 989.274 1587.7L988.088 1509.91 975.036 1509.91C972.505 1509.91 970.488 1509.16 968.985 1507.65 967.482 1506.14 966.731 1504.12 966.731 1501.59L966.731 1481.13C966.731 1478.59 967.482 1476.57 968.985 1475.06 970.488 1473.55 972.505 1472.8 975.036 1472.8L987.613 1472.8 986.901 1421.65C986.901 1416.89 989.195 1414.52 993.783 1414.52ZM249.086 1412.37 369.87 1412.61C372.401 1412.61 374.418 1413.37 375.921 1414.87 377.424 1416.38 378.175 1418.4 378.175 1420.94L378.175 1439.02C378.175 1441.56 377.424 1443.58 375.921 1445.09 374.418 1446.59 372.401 1447.35 369.87 1447.35L273.764 1447.35 273.764 1461.14 367.497 1460.67C369.712 1460.67 371.373 1461.38 372.48 1462.81 373.588 1464.24 374.141 1465.9 374.141 1467.8L374.141 1485.65C374.141 1488.03 373.429 1489.81 372.006 1491 370.582 1492.19 368.684 1492.78 366.31 1492.78L273.764 1493.26 273.764 1508.25 371.768 1508.48C374.299 1508.17 376.158 1508.33 377.345 1508.96 378.531 1509.59 379.283 1511.02 379.599 1513.24L379.599 1530.61C380.39 1535.37 378.729 1538.14 374.616 1538.93L250.272 1542.98C239.198 1542.98 233.661 1537.51 233.661 1526.56L232.475 1429.03C232.317 1423.48 233.819 1419.31 236.983 1416.54 240.147 1413.76 244.182 1412.37 249.086 1412.37ZM2344.16 1412.14 2373.11 1412.14C2377.86 1412.14 2380.15 1414.52 2379.99 1419.27L2374.77 1587.7C2374.77 1592.46 2372.4 1594.84 2367.65 1594.84L2344.4 1594.84C2339.65 1594.84 2337.28 1592.46 2337.28 1587.7L2337.28 1419.27C2337.28 1414.52 2339.57 1412.14 2344.16 1412.14ZM1237.07 1412.14 1266.02 1412.14C1270.77 1412.14 1273.06 1414.52 1272.9 1419.27L1271.24 1473.51 1290.94 1473.28C1293.47 1473.28 1295.49 1474.03 1296.99 1475.54 1298.49 1477.04 1299.24 1479.06 1299.24 1481.6L1299.24 1501.11C1299.24 1503.65 1298.49 1505.67 1296.99 1507.18 1295.49 1508.68 1293.47 1509.44 1290.94 1509.44L1270.06 1509.91 1267.68 1587.7C1267.68 1592.46 1265.31 1594.84 1260.56 1594.84L1237.31 1594.84C1232.56 1594.84 1230.19 1592.46 1230.19 1587.7L1230.19 1419.27C1230.19 1414.52 1232.48 1412.14 1237.07 1412.14ZM1043.38 1412.14 1069.96 1412.14C1074.7 1412.14 1076.99 1414.52 1076.84 1419.27L1071.62 1587.7C1071.62 1592.46 1069.24 1594.84 1064.5 1594.84L1043.62 1594.84C1038.87 1594.84 1036.5 1592.46 1036.5 1587.7L1036.5 1419.27C1036.5 1414.52 1038.79 1412.14 1043.38 1412.14ZM428.027 1410 507.522 1410.47C512.426 1410.47 516.421 1411.86 519.505 1414.63 522.59 1417.41 524.054 1421.57 523.895 1427.12L522.709 1469.71C522.551 1474.94 521.127 1478.99 518.438 1481.84 515.748 1484.69 511.635 1486.2 506.098 1486.36L455.554 1487.07 455.554 1499.21C460.774 1499.36 466.351 1499.4 472.283 1499.33 478.216 1499.25 484.227 1499.09 490.318 1498.85 496.408 1498.61 502.42 1498.29 508.352 1497.9 514.285 1497.5 520.02 1496.91 525.556 1496.11 528.088 1495.8 529.867 1496.07 530.896 1496.95 531.924 1497.82 532.596 1499.36 532.913 1501.59L534.811 1518C535.286 1522.12 533.387 1524.74 529.116 1525.85 523.421 1527.28 516.816 1528.51 509.302 1529.54 501.787 1530.57 493.877 1531.4 485.572 1532.04 477.267 1532.67 468.684 1533.11 459.825 1533.34 450.966 1533.58 442.344 1533.62 433.96 1533.46 422.886 1533.15 417.349 1527.67 417.349 1517.05L416.637 1471.61C416.637 1466.06 418.14 1461.9 421.146 1459.12 424.151 1456.35 428.106 1454.96 433.011 1454.96L484.741 1454.72 484.504 1442.83 428.027 1442.83C425.496 1442.83 423.479 1442.07 421.976 1440.56 420.473 1439.06 419.722 1437.04 419.722 1434.5L419.722 1418.32C419.722 1415.78 420.473 1413.76 421.976 1412.26 423.479 1410.75 425.496 1410 428.027 1410ZM1510.89 1409.76 1598.46 1409.76C1603.36 1409.76 1607.04 1411.15 1609.49 1413.92 1611.94 1416.7 1612.61 1420.54 1611.51 1425.46 1609.77 1433.39 1607.16 1441.08 1603.68 1448.53 1600.2 1455.99 1595.92 1463.28 1590.86 1470.42 1595.61 1474.23 1600.59 1477.64 1605.81 1480.65 1611.03 1483.66 1616.65 1486.6 1622.66 1489.45 1625.19 1490.72 1626.65 1492.27 1627.05 1494.09 1627.44 1495.92 1626.85 1497.94 1625.27 1500.16L1613.88 1516.57C1612.3 1518.79 1610.6 1519.94 1608.78 1520.02 1606.96 1520.1 1605.1 1519.59 1603.2 1518.48 1590.86 1511.66 1579.95 1503.17 1570.45 1493.02 1563.18 1499.68 1555.27 1505.67 1546.72 1510.98 1538.18 1516.3 1529.09 1520.78 1519.44 1524.42 1516.27 1525.69 1513.66 1525.89 1511.6 1525.02 1509.55 1524.15 1507.89 1522.68 1506.62 1520.62L1499.74 1509.67C1498.47 1507.45 1498.28 1505.35 1499.15 1503.37 1500.02 1501.39 1501.8 1499.68 1504.49 1498.25 1517.77 1491.28 1529.2 1483.47 1538.77 1474.82 1548.35 1466.18 1555.58 1456.23 1560.49 1444.97L1510.89 1444.97C1508.04 1444.97 1505.75 1444.09 1504.01 1442.35 1502.27 1440.6 1501.4 1438.31 1501.4 1435.45L1501.4 1419.27C1501.4 1416.42 1502.27 1414.12 1504.01 1412.37 1505.75 1410.63 1508.04 1409.76 1510.89 1409.76ZM1325.31 1408.81 1454.4 1408.81C1458.51 1408.81 1461.91 1409.96 1464.6 1412.26 1467.29 1414.56 1468.63 1418.16 1468.63 1423.08L1468.63 1425.46C1468.63 1433.55 1467.88 1441.91 1466.38 1450.56 1464.88 1459.2 1462.86 1467.09 1460.33 1474.23 1459.54 1476.29 1458.55 1477.95 1457.36 1479.22 1456.18 1480.49 1454.32 1481.05 1451.79 1480.89L1432.09 1480.17C1427.66 1480.02 1425.76 1477.16 1426.4 1471.61 1426.87 1467.17 1427.23 1462.33 1427.46 1457.1 1427.7 1451.86 1427.66 1447.27 1427.34 1443.3L1325.31 1443.3C1321.35 1443.3 1319.37 1441.32 1319.37 1437.35L1319.37 1414.75C1319.37 1410.79 1321.35 1408.81 1325.31 1408.81ZM1812.08 1408.57 1836.05 1408.57C1839.21 1408.57 1841.62 1409.56 1843.29 1411.54 1844.95 1413.52 1845.62 1416.1 1845.3 1419.27 1844.83 1426.09 1843.92 1433.03 1842.57 1440.09 1841.23 1447.15 1839.29 1454.24 1836.76 1461.38 1842.46 1466.93 1848.19 1471.73 1853.96 1475.77 1859.74 1479.82 1865.39 1483.43 1870.93 1486.6 1875.2 1488.98 1876.31 1492.15 1874.25 1496.11L1858.35 1515.15C1855.67 1518 1852.18 1518.08 1847.91 1515.38 1838.11 1509.36 1828.93 1501.82 1820.39 1492.78 1812.32 1504.52 1802.12 1514.59 1789.78 1523 1787.4 1524.58 1785.23 1525.18 1783.25 1524.78 1781.27 1524.38 1779.57 1523.39 1778.15 1521.81L1766.05 1509.44C1763.2 1506.26 1763.75 1502.85 1767.71 1499.21 1779.1 1488.26 1787.64 1476.29 1793.34 1463.28 1799.03 1450.28 1802.12 1435.61 1802.59 1419.27 1802.75 1415.63 1803.7 1412.93 1805.44 1411.19 1807.18 1409.44 1809.39 1408.57 1812.08 1408.57ZM2039 1406.19 2064.39 1406.19C2067.55 1406.19 2069.92 1407.18 2071.51 1409.16 2073.09 1411.15 2073.8 1413.72 2073.64 1416.89 2073.01 1431.01 2069.61 1445.12 2063.44 1459.24 2070.87 1465.27 2078.43 1470.26 2086.1 1474.23 2093.77 1478.19 2101.64 1481.52 2109.71 1484.22 2112.08 1485.01 2113.47 1486.36 2113.86 1488.26 2114.26 1490.17 2113.98 1491.99 2113.03 1493.73L2101.88 1515.15C2100.93 1517.05 2099.51 1518.16 2097.61 1518.48 2095.71 1518.79 2093.65 1518.55 2091.44 1517.76 2083.05 1514.75 2075.11 1510.94 2067.59 1506.34 2060.08 1501.74 2052.84 1495.88 2045.88 1488.74 2040.5 1495.4 2034.53 1501.62 2027.96 1507.41 2021.4 1513.2 2014.08 1518.4 2006.01 1523 2003.64 1524.42 2001.46 1524.98 1999.49 1524.66 1997.51 1524.34 1995.81 1523.39 1994.39 1521.81L1982.28 1509.44C1981.02 1508.01 1980.5 1506.34 1980.74 1504.44 1980.98 1502.54 1982.05 1500.79 1983.94 1499.21 2013.37 1476.37 2028.56 1448.93 2029.51 1416.89 2029.66 1413.25 2030.61 1410.55 2032.35 1408.81 2034.09 1407.06 2036.31 1406.19 2039 1406.19ZM2136.05 1405 2165 1405C2169.75 1405 2172.04 1407.38 2171.88 1412.14L2169.51 1515.15C2169.19 1519.9 2166.82 1522.28 2162.39 1522.28L2137.71 1522.28C2132.97 1522.28 2130.59 1519.9 2130.59 1515.15L2129.88 1469.71 2094.29 1469.71C2091.76 1469.71 2089.74 1468.95 2088.24 1467.45 2086.73 1465.94 2085.98 1463.92 2085.98 1461.38L2085.98 1441.64C2085.98 1439.1 2086.73 1437.08 2088.24 1435.57 2089.74 1434.06 2091.76 1433.31 2094.29 1433.31L2129.41 1433.31 2129.17 1412.14C2129.17 1407.38 2131.46 1405 2136.05 1405ZM1936.9 1405 1962.29 1405C1967.04 1405 1969.33 1407.38 1969.17 1412.14L1963.95 1524.66C1963.95 1529.42 1961.58 1531.8 1956.83 1531.8L1937.14 1531.8C1932.39 1531.8 1930.02 1529.42 1930.02 1524.66L1930.02 1481.84 1915.07 1481.84 1914.12 1512.77C1914.12 1517.52 1911.75 1519.9 1907 1519.9L1887.3 1519.9C1882.56 1519.9 1880.19 1517.52 1880.19 1512.77L1877.81 1414.52C1877.81 1409.76 1880.11 1407.38 1884.69 1407.38L1910.09 1407.38C1914.83 1407.38 1917.13 1409.76 1916.97 1414.52L1916.02 1448.53 1930.02 1448.53 1930.02 1412.14C1930.02 1407.38 1932.31 1405 1936.9 1405ZM1639.51 1405 1668.46 1405C1673.2 1405 1675.5 1407.38 1675.34 1412.14L1674.39 1449.49 1693.85 1449.49C1696.38 1449.49 1698.4 1450.24 1699.9 1451.75 1701.4 1453.25 1702.15 1455.27 1702.15 1457.81L1702.15 1477.32C1702.15 1479.86 1701.4 1481.88 1699.9 1483.39 1698.4 1484.89 1696.38 1485.65 1693.85 1485.65L1673.68 1485.65 1672.97 1519.9C1672.65 1524.66 1670.28 1527.04 1665.85 1527.04L1641.17 1527.04C1636.42 1527.04 1634.05 1524.66 1634.05 1519.9L1632.63 1412.14C1632.63 1407.38 1634.92 1405 1639.51 1405ZM766.65 1405 795.6 1405C800.346 1405 802.64 1407.38 802.482 1412.14L800.109 1505.63C799.792 1510.39 797.419 1512.77 792.99 1512.77L768.311 1512.77C763.565 1512.77 761.192 1510.39 761.192 1505.63L760.718 1476.84 727.259 1476.84 725.835 1476.84C722.829 1486.99 718.953 1496.91 714.208 1506.58 713.1 1508.8 711.637 1510.35 709.817 1511.22 707.998 1512.09 705.981 1512.13 703.766 1511.34L685.495 1505.15C683.754 1504.68 682.489 1503.69 681.698 1502.18 680.907 1500.67 680.986 1498.57 681.935 1495.88 682.568 1493.97 683.161 1492.11 683.715 1490.29 684.269 1488.46 684.783 1486.68 685.257 1484.93L634.476 1488.5C629.572 1488.82 626.961 1486.44 626.645 1481.36L625.933 1463.28C625.775 1461.38 626.289 1459.76 627.476 1458.41 628.662 1457.06 630.363 1456.31 632.577 1456.15L691.427 1454.01 692.139 1441.64 628.543 1442.11C624.588 1442.11 622.611 1440.13 622.611 1436.16L622.611 1414.75C622.611 1410.79 624.588 1408.81 628.543 1408.81L718.479 1408.81C722.592 1408.81 725.993 1409.96 728.683 1412.26 731.372 1414.56 732.717 1418.16 732.717 1423.08L732.717 1427.84C732.717 1432.6 732.558 1437.19 732.242 1441.64L760.243 1441.64 759.769 1412.14C759.769 1407.38 762.062 1405 766.65 1405ZM559.015 1405 587.965 1405C592.711 1405 595.005 1407.38 594.847 1412.14L592.474 1529.42C592.158 1534.18 589.785 1536.56 585.355 1536.56L560.676 1536.56C555.93 1536.56 553.557 1534.18 553.557 1529.42L552.134 1412.14C552.134 1407.38 554.428 1405 559.015 1405Z" fill="#582A22" fill-rule="evenodd"/></g></svg>