<?xml version="1.0" encoding="UTF-8"?>
<svg id="Layer_1" xmlns="http://www.w3.org/2000/svg" version="1.1" viewBox="0 0 300 300">
  <!-- Generator: Adobe Illustrator 29.1.0, SVG Export Plug-In . SVG Version: 2.1.0 Build 142)  -->
  <defs>
    <style>
      .st0 {
        fill: #fff;
      }
    </style>
  </defs>
  <path class="st0" d="M183.72,14.19l18.92,73.63,69.67,23.48c10.18,3.43,10.18,17.82,0,21.25l-69.67,23.48-18.92,73.63c-2.89,11.23-18.83,11.23-21.72,0l-18.92-73.63-69.67-23.48c-10.18-3.43-10.18-17.82,0-21.25l69.67-23.48,18.92-73.63c2.89-11.23,18.83-11.23,21.72,0Z"/>
  <path class="st0" d="M61.37,194.1l8.62,33.53,31.73,10.69c4.63,1.56,4.63,8.12,0,9.68l-31.73,10.69-8.62,33.53c-1.31,5.11-8.58,5.11-9.89,0l-8.62-33.53-31.73-10.69c-4.63-1.56-4.63-8.12,0-9.68l31.73-10.69,8.62-33.53c1.31-5.11,8.58-5.11,9.89,0Z"/>
  <path class="st0" d="M258.56,6.89l6.64,25.85,24.46,8.24c3.57,1.2,3.57,6.26,0,7.46l-24.46,8.24-6.64,25.85c-1.01,3.94-6.61,3.94-7.63,0l-6.64-25.85-24.46-8.24c-3.57-1.2-3.57-6.26,0-7.46l24.46-8.24,6.64-25.85c1.01-3.94,6.61-3.94,7.63,0Z"/>
</svg>