<?xml version="1.0" encoding="UTF-8"?>
<svg id="Layer_1" xmlns="http://www.w3.org/2000/svg" version="1.1" viewBox="0 0 16 16">
  <!-- Generator: Adobe Illustrator 29.1.0, SVG Export Plug-In . SVG Version: 2.1.0 Build 142)  -->
  <defs>
    <style>
      .st0 {
        fill: #6a00ff;
      }
    </style>
  </defs>
  <g>
    <path class="st0" d="M0,12c-2.21,0-4,1.79-4,4s1.79,4,4,4,4-1.79,4-4-1.79-4-4-4ZM0,18c-1.1,0-2-.9-2-2s.9-2,2-2,2,.9,2,2-.9,2-2,2Z"/>
    <path class="st0" d="M13.94,16.86c-.45,7.32-6.52,13.14-13.94,13.14s-14-6.28-14-14S-8.18,2.51-.86,2.06c-.08-.65-.13-1.32-.13-1.99-8.37.52-15,7.44-15,15.94S-8.84,32,0,32s15.42-6.63,15.94-15c-.68,0-1.34-.05-1.99-.13Z"/>
    <path class="st0" d="M9.99,15.88s0,.08,0,.12c0,5.51-4.49,10-10,10s-10-4.49-10-10S-5.51,6,0,6c.04,0,.08,0,.12,0-.24-.64-.45-1.3-.61-1.98-6.39.26-11.5,5.51-11.5,11.97S-6.63,28,0,28s11.71-5.11,11.97-11.5c-.68-.17-1.33-.37-1.98-.61Z"/>
    <path class="st0" d="M5.28,13.18c.45.84.72,1.8.72,2.82,0,3.31-2.69,6-6,6s-6-2.69-6-6S-3.31,10,0,10c1.02,0,1.98.27,2.82.72-.67-.82-1.27-1.7-1.77-2.64-.34-.05-.69-.08-1.05-.08-4.42,0-8,3.58-8,8S-4.42,24,0,24s8-3.58,8-8c0-.36-.03-.7-.08-1.05-.94-.51-1.82-1.1-2.64-1.77Z"/>
  </g>
  <g>
    <path class="st0" d="M16-16C7.16-16,0-8.84,0,0s7.16,16,16,16S32,8.84,32,0s-7.16-16-16-16ZM16,14C8.28,14,2,7.72,2,0s6.28-14,14-14S30-7.72,30,0s-6.28,14-14,14Z"/>
    <path class="st0" d="M16-12C9.37-12,4-6.63,4,0s5.37,12,12,12S28,6.63,28,0s-5.37-12-12-12ZM16,10C10.49,10,6,5.51,6,0s4.49-10,10-10S26-5.51,26,0s-4.49,10-10,10Z"/>
    <path class="st0" d="M16-8c-4.42,0-8,3.58-8,8s3.58,8,8,8S24,4.42,24,0s-3.58-8-8-8ZM16,6c-3.31,0-6-2.69-6-6s2.69-6,6-6,6,2.69,6,6-2.69,6-6,6Z"/>
    <path class="st0" d="M16-4c-2.21,0-4,1.79-4,4s1.79,4,4,4,4-1.79,4-4-1.79-4-4-4ZM16,2c-1.1,0-2-.9-2-2s.9-2,2-2,2,.9,2,2-.9,2-2,2Z"/>
  </g>
</svg>