<?xml version="1.0" encoding="UTF-8"?>
<svg id="Layer_1" xmlns="http://www.w3.org/2000/svg" version="1.1" viewBox="0 0 300 300">
  <!-- Generator: Adobe Illustrator 29.1.0, SVG Export Plug-In . SVG Version: 2.1.0 Build 142)  -->
  <defs>
    <style>
      .st0 {
        fill: #fff;
      }
    </style>
  </defs>
  <path class="st0" d="M136.91,198.28h-70.64l-14.4,44.65c-.36,1.72-1.9,2.81-3.62,2.63H12.56c-2.08,0-2.63-1.18-2.08-3.44l61.13-175.97c.54-1.9,1.18-3.98,1.9-6.25.72-3.98,1.18-8.15,1.18-12.32-.18-.91.54-1.9,1.54-2.08h49.18c1.54,0,2.26.54,2.45,1.54l69.28,195.62c.54,2.08,0,3.08-1.9,3.08h-39.67c-1.36.18-2.63-.72-3.08-2.08l-15.58-45.19v-.18ZM77.32,159.78h48.27c-1.18-3.98-2.63-8.69-4.35-13.68-1.72-5.16-3.44-10.6-5.16-16.3-1.9-5.89-3.62-11.59-5.52-17.48s-3.62-11.41-5.16-16.94c-1.54-5.34-2.81-10.23-4.17-14.85h-.36c-1.72,8.15-3.8,16.3-6.43,24.54-2.81,9.15-5.71,18.57-8.69,28.08-2.63,9.69-5.52,18.57-8.33,26.63h-.09ZM239.43,78.64c-6.25.18-12.32-2.26-16.94-6.61-4.35-4.71-6.61-11.05-6.43-17.48-.18-6.43,2.26-12.5,6.79-16.94,4.53-4.44,10.6-6.61,16.94-6.61s13.13,2.26,17.3,6.61c4.17,4.53,6.43,10.6,6.25,16.94.18,6.43-2.08,12.68-6.61,17.48-4.35,4.53-10.87,7.06-17.3,6.61h0ZM218.24,243.47V97.29c0-1.9.72-2.63,2.45-2.63h37.58c1.72,0,2.45.91,2.45,2.63v146.26c0,2.08-.72,3.08-2.45,3.08h-37.22c-1.9,0-2.81-1.18-2.81-3.08v-.09Z"/>
</svg>