<?xml version="1.0" encoding="UTF-8"?>
<svg id="Layer_1" xmlns="http://www.w3.org/2000/svg" version="1.1" viewBox="0 0 300 300">
  <!-- Generator: Adobe Illustrator 29.1.0, SVG Export Plug-In . SVG Version: 2.1.0 Build 142)  -->
  <path d="M0,0v300h300V0H0ZM163.4,234c0,29.2-17.1,42.5-42.1,42.5s-35.6-11.7-42.3-25.8l22.9-13.9c4.4,7.9,8.5,14.5,18.1,14.5s15.1-3.6,15.1-17.7v-95.9h28.2v96.2h0ZM230,276.5c-26.2,0-43.1-12.5-51.4-28.8l22.9-13.3c6,9.9,13.9,17.1,27.8,17.1s19.1-5.8,19.1-13.9-7.7-13.1-20.5-18.7l-7-3c-20.3-8.7-33.9-19.5-33.9-42.5s16.1-37.2,41.3-37.2,30.8,6.2,40.1,22.6l-22,14.1c-4.8-8.7-10-12.1-18.1-12.1s-13.5,5.2-13.5,12.1,5.2,11.9,17.3,17.1l7,3c24,10.3,37.5,20.7,37.5,44.3s-19.9,39.3-46.7,39.3h.1Z"/>
</svg>