<?xml version="1.0" encoding="UTF-8"?>
<svg id="Layer_1" xmlns="http://www.w3.org/2000/svg" version="1.1" viewBox="0 0 300 300">
  <!-- Generator: Adobe Illustrator 29.1.0, SVG Export Plug-In . SVG Version: 2.1.0 Build 142)  -->
  <defs>
    <style>
      .st0, .st1, .st2 {
        fill: #fff;
      }

      .st1 {
        opacity: .5;
      }

      .st2 {
        opacity: .8;
      }
    </style>
  </defs>
  <path class="st0" d="M227.6,272.1c25.2-16.2,45.5-40.4,56.5-70.7.4-1.2.8-2.4,1.2-3.5-.7-1.3-1.4-2.7-2.1-4l-89.6,64,34,14.3h0Z"/>
  <path class="st2" d="M193.5,257.7l38.9-8.2-4.8,22.5-34-14.3Z"/>
  <path class="st1" d="M232.4,249.5l51.3-54.8c-.2-.3-.4-.6-.5-1l-89.6,64,38.9-8.2h0Z"/>
  <path class="st0" d="M83.1,278.2c26.6,13.7,57.7,19.2,89.5,13.6,1.2-.2,2.4-.5,3.7-.7.8-1.3,1.6-2.6,2.4-3.9l-100.2-45.6,4.6,36.7h0Z"/>
  <path class="st2" d="M78.4,241.5l26.5,29.6-21.9,7.1-4.6-36.7h0Z"/>
  <path class="st1" d="M105,271.1l73.1,17c.2-.3.4-.6.6-.9l-100.2-45.6,26.5,29.6h0Z"/>
  <path class="st0" d="M5.5,156.1c1.4,29.9,12.3,59.6,33,84.3.8,1,1.6,1.9,2.5,2.8,1.5,0,3,.1,4.6.2l-10.6-109.6-29.4,22.3Z"/>
  <path class="st2" d="M34.9,133.8l-12.3,37.8-17.1-15.4,29.4-22.3Z"/>
  <path class="st1" d="M22.6,171.6l21.8,71.8c.4,0,.7,0,1.1,0l-10.6-109.6-12.3,37.8h0Z"/>
  <path class="st0" d="M72.4,27.9c-25.2,16.2-45.5,40.4-56.5,70.7-.4,1.2-.8,2.4-1.2,3.5.7,1.3,1.4,2.7,2.1,4l89.6-64-34.1-14.3Z"/>
  <path class="st2" d="M106.5,42.3l-38.9,8.2,4.8-22.5,34.1,14.3h0Z"/>
  <path class="st1" d="M67.6,50.5l-51.3,54.8c.2.3.3.6.5,1l89.6-64-38.9,8.2h0Z"/>
  <path class="st0" d="M216.9,21.8c-26.6-13.7-57.7-19.2-89.5-13.6-1.2.2-2.4.5-3.7.7-.8,1.3-1.6,2.6-2.4,3.9l100.2,45.6-4.6-36.7h0Z"/>
  <path class="st2" d="M221.6,58.4l-26.5-29.6,21.9-7.1,4.6,36.7h0Z"/>
  <path class="st1" d="M195,28.9L121.9,11.9c-.2.3-.4.6-.6.9l100.2,45.6-26.5-29.6h0Z"/>
  <path class="st0" d="M294.5,143.9c-1.4-29.9-12.3-59.6-33-84.3-.8-1-1.6-1.9-2.5-2.8-1.5,0-3-.1-4.6-.2l10.6,109.6,29.4-22.3h0Z"/>
  <path class="st2" d="M265.1,166.2l12.3-37.8,17.1,15.4-29.4,22.3h0Z"/>
  <path class="st1" d="M277.4,128.4l-21.8-71.8c-.4,0-.7,0-1.1,0l10.6,109.6,12.3-37.8h0Z"/>
</svg>