<?xml version="1.0" encoding="UTF-8"?>
<svg id="Layer_1" xmlns="http://www.w3.org/2000/svg" version="1.1" xmlns:xlink="http://www.w3.org/1999/xlink" viewBox="0 0 300 300">
  <!-- Generator: Adobe Illustrator 29.1.0, SVG Export Plug-In . SVG Version: 2.1.0 Build 142)  -->
  <defs>
    <style>
      .st0, .st1 {
        fill: #fff;
      }

      .st2 {
        mask: url(#mask);
      }

      .st3 {
        fill: url(#linear-gradient1);
      }

      .st1, .st4 {
        fill-rule: evenodd;
      }

      .st5 {
        fill: none;
      }

      .st6 {
        fill: #4b4b4b;
        isolation: isolate;
        opacity: .7;
      }

      .st4 {
        fill: url(#linear-gradient);
      }

      .st7 {
        clip-path: url(#clippath);
      }
    </style>
    <clipPath id="clippath">
      <rect class="st5" y="58.1" width="300" height="183.7"/>
    </clipPath>
    <mask id="mask" x="0" y="58.1" width="300" height="183.8" maskUnits="userSpaceOnUse">
      <g id="mask0_337_7903">
        <path class="st0" d="M300,58.1H0v183.8h300V58.1Z"/>
      </g>
    </mask>
    <linearGradient id="linear-gradient" x1="254.9" y1="61.3" x2="331.4" y2="61.3" gradientTransform="translate(-134.1 187.8) scale(.8 -.8)" gradientUnits="userSpaceOnUse">
      <stop offset="0" stop-color="#fff"/>
      <stop offset=".2" stop-color="#e8e8e8"/>
      <stop offset=".5" stop-color="#c2c2c2"/>
      <stop offset=".8" stop-color="#ababab"/>
      <stop offset="1" stop-color="#a3a3a3"/>
    </linearGradient>
    <linearGradient id="linear-gradient1" x1="254.3" y1="61.4" x2="333.3" y2="61.4" gradientTransform="translate(-134.1 187.8) scale(.8 -.8)" gradientUnits="userSpaceOnUse">
      <stop offset="0" stop-color="#a3a3a3"/>
      <stop offset=".2" stop-color="#ababab"/>
      <stop offset=".5" stop-color="#c2c2c2"/>
      <stop offset=".8" stop-color="#e8e8e8"/>
      <stop offset="1" stop-color="#fff"/>
    </linearGradient>
  </defs>
  <g class="st7">
    <g class="st2">
      <g>
        <path class="st0" d="M148.2,241.9c-1,0-2-.3-2.8-.7l-9-5.4c-1.4-.7-.7-1-.3-1.2,1.8-.6,2.2-.7,4.1-1.8.2-.1.5,0,.7,0l6.9,4.1c.3.1.6.1.8,0l27.1-15.7c.3-.1.4-.4.4-.7v-31.3c0-.3-.1-.6-.4-.7l-27.1-15.6c-.3-.1-.6-.1-.8,0l-27.1,15.6c-.3.1-.4.5-.4.7v31.3c0,.3.1.6.4.7l7.4,4.3c4,2,6.5-.3,6.5-2.7v-30.9c0-.4.3-.8.8-.8h3.5c.4,0,.8.4.8.8v30.9c0,5.4-2.9,8.5-8,8.5s-2.8,0-6.2-1.7l-7.1-4.1c-1.8-1-2.8-2.9-2.8-5v-31.3c0-2,1.1-3.9,2.8-5l27.1-15.7c1.7-.9,4-.9,5.7,0l27.1,15.7c1.8,1,2.8,2.9,2.8,5v31.3c0,2-1.1,3.9-2.8,5l-27.1,15.7c-.8.3-1.8.6-2.8.6h0Z"/>
        <path class="st0" d="M156.6,220.4c-11.9,0-14.3-5.4-14.3-10s.3-.8.8-.8h3.5c.4,0,.7.3.7.7.5,3.6,2.1,5.4,9.3,5.4s8.1-1.3,8.1-4.3-.7-3.1-9.6-3.9c-7.4-.7-12-2.4-12-8.3s4.6-8.7,12.3-8.7,13,3,13.5,9.5c0,.2,0,.4-.2.6-.1.1-.3.3-.5.3h-3.6c-.4,0-.7-.3-.7-.6-.8-3.7-2.9-5-8.5-5s-7,2.2-7,3.8.9,2.6,9.3,3.7c8.3,1.1,12.3,2.6,12.3,8.5s-5,9.4-13.5,9.4h0ZM195.7,187.5c0,2.8-2.4,5.2-5.2,5.2s-5.2-2.3-5.2-5.2,2.4-5.2,5.2-5.2,5.2,2.3,5.2,5.2ZM186.1,187.5c0,2.4,2,4.4,4.3,4.4s4.4-2,4.4-4.4-2-4.3-4.4-4.3-4.3,1.9-4.3,4.3ZM188.5,184.6h2c.7,0,2,0,2,1.6s-.7,1.3-1.1,1.4c.8,0,.9.6.9,1.4,0,.5.1,1.3.3,1.6h-1.2c0-.3-.2-1.8-.2-1.8,0-.3-.2-.5-.6-.5h-1v2.4h-1.2v-6h0ZM189.6,187.2h.9c.7,0,.9-.5.9-.8,0-.8-.5-.8-.9-.8h-.9v1.6h0,0Z"/>
        <path class="st1" d="M64.4,119.6c0-1.2-.7-2.4-1.8-3l-28.7-16.6c-.5-.3-1-.4-1.6-.5h-.3c-.5,0-1.1.2-1.6.5L1.8,116.5c-1.1.6-1.8,1.8-1.8,3.1v44.5c0,.6.4,1.2.9,1.5.5.3,1.2.3,1.7,0l17.1-9.8c1.1-.6,1.8-1.7,1.8-3v-20.8c0-1.2.7-2.4,1.8-3l7.3-4.2c.5-.3,1.2-.5,1.8-.5s1.2.1,1.7.5l7.3,4.2c1.1.6,1.8,1.7,1.8,3v20.8c0,1.2.7,2.4,1.8,3l17,9.8c.5.3,1.2.3,1.8,0,.5-.3.9-.9.9-1.5v-44.5h0ZM202.6,58.3c-.5-.3-1.2-.3-1.7,0-.5.3-.9.9-.9,1.5v44.1c0,.4-.2.8-.6,1.1-.4.2-.8.2-1.2,0l-7.2-4.1c-1.1-.6-2.4-.6-3.5,0l-28.8,16.6c-1.1.6-1.8,1.7-1.8,3v33.2c0,1.2.7,2.4,1.8,3l28.8,16.6c1.1.6,2.4.6,3.5,0l28.8-16.6c1.1-.6,1.8-1.7,1.8-3v-82.7c0-1.3-.7-2.4-1.8-3.1l-17.2-9.6ZM199.9,142.7c0,.3-.1.6-.4.7l-9.8,5.7c-.3.1-.6.1-.9,0l-9.8-5.7c-.3-.1-.4-.5-.4-.7v-11.4c0-.3.1-.6.4-.7l9.8-5.7c.3-.1.6-.1.9,0l9.8,5.7c.3.1.4.5.4.7v11.4ZM298.2,131c1.1-.6,1.7-1.8,1.7-3v-8.1c0-1.2-.7-2.3-1.7-3l-28.5-16.6c-1.1-.6-2.4-.6-3.5,0l-28.8,16.6c-1.1.6-1.8,1.7-1.8,3v33.2c0,1.2.7,2.4,1.8,3l28.5,16.3c1.1.6,2.4.6,3.4,0l17.3-9.6c.5-.3.9-.9.9-1.5s-.3-1.2-.9-1.5l-28.9-16.6c-.5-.3-.9-.9-.9-1.5v-10.4c0-.6.3-1.2.9-1.5l9-5.2c.5-.3,1.2-.3,1.8,0l9,5.2c.5.3.9.9.9,1.5v8.1c0,.6.3,1.2.9,1.5.5.3,1.2.3,1.8,0l17.1-10h0Z"/>
        <path class="st1" d="M267.5,129.5c.2-.1.5-.1.7,0l5.5,3.2c.2.1.3.4.3.6v6.4c0,.2-.1.5-.3.6l-5.5,3.2c-.2.1-.5.1-.7,0l-5.5-3.2c-.2-.1-.3-.4-.3-.6v-6.4c0-.2.1-.5.3-.6l5.5-3.2Z"/>
        <path class="st4" d="M108.8,100.8c1.1-.6,2.4-.6,3.5,0l28.5,16.5c1.1.6,1.7,1.8,1.7,3v32.8c0,1.2-.7,2.3-1.7,3l-28.5,16.5c-1.1.6-2.4.6-3.5,0l-28.5-16.5c-1.1-.6-1.7-1.8-1.7-3v-32.9c0-1.2.7-2.3,1.7-3l28.5-16.4h0Z"/>
        <path class="st6" d="M140.6,117.2l-28.3-16.5c-.3-.1-.6-.3-.9-.3l-32.1,54.9c.3.3.6.6.9.8l28.5,16.5c.9.5,1.8.6,2.7.3l30-54.9c-.2-.3-.5-.6-.9-.7h0Z"/>
        <path class="st3" d="M112.2,172.6l28.4-16.5c1.1-.6,1.6-1.8,1.6-3h0c0-.1-30.8-52.7-30.8-52.7-.9-.3-1.8-.1-2.6.3l-28.2,16.3,30.7,55.9c.4,0,.7-.1,1-.3h0Z"/>
      </g>
    </g>
  </g>
</svg>