<?xml version="1.0" encoding="UTF-8"?>
<svg id="Layer_1" xmlns="http://www.w3.org/2000/svg" version="1.1" viewBox="0 0 300 300">
  <!-- Generator: Adobe Illustrator 29.1.0, SVG Export Plug-In . SVG Version: 2.1.0 Build 142)  -->
  <defs>
    <style>
      .st0 {
        fill: #fff;
      }
    </style>
  </defs>
  <g id="Layer_2">
    <g id="Outlined_Mnemonics_Logos">
      <g id="Ps">
        <path class="st0" d="M6,250.9V45.7c0-1.4.6-2.2,2-2.2,3.4,0,6.6,0,11.2-.2,4.8-.2,9.8-.2,15.2-.4,5.4-.2,11.2-.2,17.4-.4,6.2-.2,12.2-.2,18.2-.2,16.4,0,29.9,2,41.1,6.2,10,3.4,19.2,9,26.7,16.4,6.4,6.4,11.4,14.2,14.6,22.7,3,8.4,4.6,17,4.6,25.9,0,17.2-4,31.3-12,42.5-8,11.2-19.2,19.5-32.1,24.3-13.6,5-28.5,6.8-44.9,6.8s-8,0-10-.2-4.8-.2-8.6-.2v64c.2,1.4-.8,2.6-2.2,2.8H8.4c-1.6,0-2.4-.8-2.4-2.6ZM49.5,82v67c2.8.2,5.4.4,7.8.4h10.6c7.8,0,15.6-1.2,22.9-3.6,6.4-1.8,12-5.6,16.4-10.6,4.2-5,6.2-11.8,6.2-20.5.2-6.2-1.4-12.4-4.6-17.8-3.4-5.2-8.2-9.2-14-11.4-7.4-3-15.4-4.2-23.5-4-5.2,0-9.8,0-13.6.2-4-.2-6.8,0-8.2.2h0Z"/>
        <path class="st0" d="M281.3,136.8c-6-3.2-12.4-5.4-19.2-6.8-7.4-1.6-14.8-2.6-22.3-2.6-4-.2-8.2.4-12,1.4-2.6.6-4.8,2-6.2,4-1,1.6-1.6,3.6-1.6,5.4s.8,3.6,2,5.2c1.8,2.2,4.2,4,6.8,5.4,4.6,2.4,9.4,4.6,14.2,6.6,10.8,3.6,21.1,8.6,30.7,14.6,6.6,4.2,12,9.8,15.8,16.6,3.2,6.4,4.8,13.4,4.6,20.5.2,9.4-2.6,18.8-7.8,26.5-5.6,8-13.4,14.2-22.3,17.8-9.8,4.2-21.7,6.4-36.1,6.4s-18.2-.8-27.1-2.6c-7-1.2-14-3.4-20.3-6.4-1.4-.8-2.4-2.2-2.2-3.8v-34.7c0-.6.2-1.4.8-1.8.6-.4,1.2-.2,1.8.2,7.8,4.6,16,7.8,24.7,9.8,7.6,2,15.6,3,23.5,3s13-1,16.6-2.8c3.2-1.4,5.4-4.8,5.4-8.4s-1.6-5.4-4.8-8c-3.2-2.6-9.8-5.6-19.5-9.4-10.2-3.6-19.5-8.4-28.3-14.4-6.2-4.4-11.4-10.2-15.2-17-3.2-6.4-4.8-13.4-4.6-20.3,0-8.6,2.4-16.8,6.8-24.1,5-8,12.4-14.4,20.9-18.4,9.4-4.8,21.1-7,35.3-7s16.6.6,24.7,1.8c6,.8,11.8,2.4,17.2,4.6.8.2,1.6,1,2,1.8.2.8.4,1.6.4,2.4v32.5c0,.8-.4,1.6-1,2-1.8.4-2.8.4-3.6,0Z"/>
      </g>
    </g>
  </g>
</svg>