<?xml version="1.0" encoding="UTF-8"?>
<svg id="Layer_1" xmlns="http://www.w3.org/2000/svg" version="1.1" viewBox="0 0 300 300">
  <!-- Generator: Adobe Illustrator 29.1.0, SVG Export Plug-In . SVG Version: 2.1.0 Build 142)  -->
  <defs>
    <style>
      .st0 {
        fill: #fff;
      }
    </style>
  </defs>
  <path class="st0" d="M50.5,171c9.2,0,16.1-1.7,20.5-5.1,4.3-3.3,7.3-9.1,8.8-17.1,1.5-7.5.9-12.7-1.6-15.6-2.6-2.9-8.2-4.3-16.7-4.3h-14.7l-8.2,42h12ZM2.3,222.8C1,222.8,0,221.8,0,220.5c0-.1,0-.3,0-.4l21.7-111.4c.2-1.1,1.2-1.9,2.3-1.9h46.7c14.7,0,25.6,4,32.5,11.8,6.9,7.9,9,18.9,6.3,32.8-1.1,5.7-3,10.9-5.6,15.6-2.6,4.7-6.1,9.1-10.3,12.9-5.1,4.7-10.8,8.2-17,10.2-6.1,2-14,3-23.4,3h-18.9l-5.4,27.8c-.2,1.1-1.2,1.9-2.3,1.9H2.3Z"/>
  <path class="st0" d="M165.1,193.2c-.7,0-1.3-.3-1.8-.8-.4-.5-.6-1.2-.5-1.9l9.6-49.3c.9-4.7.7-8.1-.6-9.5-.8-.9-3.2-2.3-10.4-2.3h-17.4l-12,62c-.2,1.1-1.2,1.9-2.3,1.9h-24.1c-1.3,0-2.3-1-2.3-2.3,0-.1,0-.3,0-.4l21.7-111.4c.2-1.1,1.2-1.9,2.3-1.9h24.1c1.3,0,2.3,1,2.3,2.3,0,.1,0,.3,0,.4l-5.2,26.9h18.7c14.2,0,23.9,2.5,29.5,7.7,5.7,5.3,7.5,13.7,5.3,25l-10.1,51.9c-.2,1.1-1.2,1.9-2.3,1.9h-24.5Z"/>
  <path class="st0" d="M240,171c9.2,0,16.1-1.7,20.5-5.1,4.3-3.3,7.3-9.1,8.8-17.1,1.5-7.5.9-12.7-1.6-15.6-2.6-2.9-8.2-4.3-16.7-4.3h-14.7l-8.2,42h12ZM191.8,222.8c-1.3,0-2.3-1-2.3-2.3,0-.1,0-.3,0-.4l21.7-111.4c.2-1.1,1.2-1.9,2.3-1.9h46.7c14.7,0,25.6,4,32.5,11.8,6.9,7.9,9,18.9,6.3,32.8-1.1,5.7-3,10.9-5.6,15.6-2.6,4.7-6.1,9.1-10.3,12.9-5.1,4.7-10.8,8.2-17,10.2-6.1,2-14,3-23.4,3h-18.9l-5.4,27.8c-.2,1.1-1.2,1.9-2.3,1.9h-24.3Z"/>
</svg>