<?xml version="1.0" encoding="UTF-8"?>
<svg id="Layer_1" xmlns="http://www.w3.org/2000/svg" version="1.1" viewBox="0 0 300 300">
  <!-- Generator: Adobe Illustrator 29.1.0, SVG Export Plug-In . SVG Version: 2.1.0 Build 142)  -->
  <defs>
    <style>
      .st0, .st1 {
        fill: #fff;
      }

      .st1 {
        opacity: .5;
      }
    </style>
  </defs>
  <path class="st1" d="M220.8,186.2l8.7-21.9h25l-11.9-33.2,14.9-37.6,42.5,113h-31.4l-7.3-20.2h-40.6,0Z"/>
  <path class="st0" d="M194,206.5l45.5-113h-30.2l-31.2,73-22.2-73h-23.2l-23.8,73-16.8-33.3-15.2,46.8,15.4,26.5h29.7l21.5-65.5,20.5,65.5h29.8Z"/>
  <path class="st1" d="M28.7,167.7h18.6c5.6,0,10.6-.6,15-1.9l4.8-14.8,13.4-41.4c-1-1.6-2.2-3.2-3.5-4.6-6.9-7.6-17-11.5-30.3-11.5H0v113h28.7v-38.8ZM53.3,119.5c2.7,2.7,4,6.3,4,10.9s-1.2,8.2-3.6,10.9c-2.6,3-7.4,4.5-14.4,4.5h-10.7v-30.3h10.8c6.5,0,11.1,1.4,13.8,4.1h0Z"/>
</svg>