<?xml version="1.0" encoding="UTF-8"?>
<svg id="Layer_1" xmlns="http://www.w3.org/2000/svg" version="1.1" viewBox="0 0 300 300">
  <!-- Generator: Adobe Illustrator 29.1.0, SVG Export Plug-In . SVG Version: 2.1.0 Build 142)  -->
  <defs>
    <style>
      .st0 {
        fill: #fff;
      }
    </style>
  </defs>
  <path class="st0" d="M287.4,35.15l-238.34.14c-7.84,2.25-11.47,7.4-12.14,15.4-.78,9.27-1.11,30.87.05,39.78.11.84.46,2.5,1.12,2.98,1.54,1.11,10.19,1.91,10.39-1.28l.7-44.45,2.1-1.41,233.21-.04c1.43-.41,4.37,1.34,4.37,2.66v144.43H122.17c-2.63,0-5.01,3.22-5.43,5.71-.63,3.76-.63,18.83.12,22.45.61,2.95,2.43,4.53,5.34,5.2l164.02.03c7.16-.71,11.42-5.25,13.77-11.71V46.88c-1.85-6.05-6.16-10.68-12.6-11.72ZM167.94,213.84c-7.01-.66-7.89-11.34-1.11-12.72,10.64-2.17,10.78,13.63,1.11,12.72Z"/>
  <path class="st0" d="M97.5,107.87c-29.27-1.51-59-.19-88.44-.67-4.57.11-7.39,3.17-9.06,7.06v143.55c1.7,3.82,4.05,6.54,8.49,7.03h86.73c5.82-1.08,8.55-5.69,8.51-11.4V118.05c-.38-4.74-1.67-8.15-6.24-10.17ZM62.99,117.19c1.82.52.84,2.9-1.3,3.39-3.19.72-13.71.37-17.47.16-1.48-.08-2.88-.29-4.3-.68l-.06-2.87h23.14ZM54.91,257.05c-6.43,5.43-12.54-7.72-3.58-8.61,4.71-.47,6.64,6.03,3.58,8.61ZM94.92,245.51c-1.07.27-2.07.53-3.19.61-25.99,2.05-54.64-1.61-80.91,0l-2.08-.85v-118.33c.5-.7,2.91-.91,3.85-.98,25.3-1.94,53.01,1.52,78.56,0l3.78,1.49v118.07Z"/>
  <path class="st0" d="M230.57,250.2h-33.98l-.88-.88v-9.38c0-.23-.68-1.32-.99-1.51l-48.1-.16c-.56.21-1.22,1.16-1.31,1.66-.48,2.69.35,6.52,0,9.38l-.88.88h-26.37c-.1,0-1.46,1.36-1.46,1.46v11.13l.88.88h113.67c2.06,0,1.89-10.94.92-12.49-.19-.3-1.28-.99-1.51-.99Z"/>
</svg>