<?xml version="1.0" encoding="UTF-8"?>
<svg id="Layer_1" xmlns="http://www.w3.org/2000/svg" version="1.1" viewBox="0 0 300 300">
  <!-- Generator: Adobe Illustrator 29.1.0, SVG Export Plug-In . SVG Version: 2.1.0 Build 142)  -->
  <defs>
    <style>
      .st0 {
        fill: #fff;
      }
    </style>
  </defs>
  <path class="st0" d="M288.25,130.01c-7.04,1.35-12.59,8.46-17.86,12.36-8.94,6.62-19.54,12.34-27.47,20.6-6.28,1.39-11.03,6.52-16.48,9.61-4.19,2.38-9.32,4.9-13.73,6.87-3.27.47-6.27,1.22-9.61,1.37v1.37c-9.38.13-8.99-3-13.73-4.12.48-3.08,3.44-5.98,5.49-8.24,3.37-3.71,3.82-3.42,6.87-8.24,2.18-3.45,2.77-4.1,4.12-8.24.48-1.46,3.93-5.74-.69-5.52-6.09.28-12.92,4.78-18.54,6.9-15.87,1.66-23.74-2.17-32.16-15.22-3.13-4.85-8.85-20.11-11.75-22.59-3.44-2.94-2.62,1.94-2.79,2.1-.11.11-1.9.89-2.75,1.37-9.22,5.2-15.82,8.8-24.72,15.11-6.46.8-12.58,4.65-17.86,8.24-.52.35-.89.97-1.37,1.37-3.36,2.79-3.4-.17-5.49,6.87-.2.67-1.4,1.21-1.47,3.37-.08,2.26,1.15,3.43,1.47,4.87.1.45,1.23.96,1.37,1.37.63,1.84,1.9,9.77,4.12,10.99.48,5.14-.87,10.07-1.37,15.11-.05.45.04.92,0,1.37-2.68,4.74-3.14,8.96-1.37,13.73.93,2.51.52,2.61,2.79,4.73,10.17,9.51,34.1,19.13,46.65,28.23,5.94,4.31,13.27,11.51,19.23,16.48.4.37.79.71,1.19,1.05,6.2,5.64,22.33,21.99,18.04,3.07-.47-2.08-2.09-4.19-1.37-6.87.44.07.94-.1,1.37,0,.28-3.64,2.57-5.47,6.87-5.49-1.18.52-1.2.98,0,1.37-1.24,2.55-.38,3.44,1.37,1.37,1.01,2.63,1.01,4.91,0,6.87-2.22.16-3.86-2.05-5.49-2.75,2.44,8.24,3.67,9.47,9.95,6.07.36-.17.71-.36,1.04-.57,5.13-2.92,4.26-3.76,6.87-6.87,4.84-5.75,4.82-4.24,6.87-12.36.3-1.18,1.3-4.93,1.37-5.49,6.54-18.34,26.01-30.39,39.83-43.95.91-.9,1.82-1.83,2.75-2.75,6.75-3.34,14.47-11.14,17.86-17.86,4.08-4.45,10.31-11.71,13.73-16.48,2.97-4.14,3.41-5.1,5.49-9.61.88-1.9,1.82-2.19,2.75-5.49.47-1.66.17-3.67,1.37-5.48-.85.09-2.22-.24-2.75-.01ZM209.96,219.73c0-.15-.01-.3,0-.44v.44ZM168.75,245.38h-.67c.23-.03.46-.05.67,0ZM106.25,161.61c.35.05.96.14,1.71.28-1.11-.09-2.13-.22-3.03-.37.47.01.91.04,1.32.1ZM188.95,194.18c-.68-.65-1.48-1.32-2.35-1.95.98.42,1.93.75,2.76.96-.47.35-.6.68-.41.99ZM178.74,186.75c.87,1.02,1.96,1.99,3.19,2.86-.77-.29-1.52-.49-2.19-.54.26-1.09-.25-1.69-1.37-1.37.39-.34.5-.65.38-.95ZM134.42,211.04h-.6c.08,0,.14-.01.22-.02.13,0,.26,0,.38.02ZM171.34,243.25s-.02.03-.03.04c-.02,0-.05-.02-.07-.02.03,0,.07-.01.1-.02ZM170.13,246.75c-.09-.19-.04-.45,0-.72v.72ZM109.69,165.72c-.9,2.57,1.01,3.13,2.75,1.37-.91,3.17-5.68,2.23-6.69,4.99-2.14,5.91.72,5.55,3.94,7.37.35.2,1.06-.21,1.37,0,1.76,1.15,3.22,3.07,5.49,4.12.92.42,1.81,1.02,2.75,1.37-.74,2.99,1.73,3.27,4.12,4.12,6.94,2.47,11.43,2.88,12.36-5.49.1-.9-.07-1.84,0-2.75,3.8,1.11,5.63-1.22,7.7-2.45.18-.1.36-.19.54-.29.92-.44,1.81-.99,2.75-1.37,2.73-.15,5.02-.61,6.87-1.37,1.95-.28,7.78-1.21,9.35-1.35-.63.04-1.32.02-2.04-.02.76-.03,1.53-.03,2.31,0,2.25,2.23,5.91,3.6,10.99,4.12-.24,3.74.28,4.21,2.75,1.37-2.04,2.47-2.09,3.7,1.37,4.12-.36.14-.6.28-.75.42-1.55-1.65-3.26-1.35-4.75.95v-1.37c-1.33.12-2.72.12-4.14.08,1.38-.06,2.76-.09,4.14-.08-10.11-4.47-19.15-2.09-27.47,4.12-1.83,1.37-3.6,2.84-5.49,4.12-1.36,2.49-1.83,4.36-2.75,6.87-1.05,2.86-1.94,5.25-2.75,8.24-1.59,1.58-3.5,2-5.49,2.75-2.1-.71-4.55-.88-5.49,1.37l-.94-.34c-1.03-.74-2.6-2.31-3.58-2.7-3.6-1.41-6.79-2.1-10.6-3.83-1.92-.87-4-3.11-6.87-4.12-4.57-3.98-3.36-6.35-4.12-10.99,8.87-.01,2.75-23.12-2.74-24.18,0-.17,0-.34,0-.54,4.81-.09,10.45.35,15.11,1.37ZM152.99,234.81c.23,0,.45-.14.66-.42.9-1.2.59-2.62-.3-3.46.24-.38.34-1.05.3-2.03.27.01.55-.02.81-.03.19.01.35.03.56.03,4.62,4.7,10.41,10.38,15.82,14.29.1.07.23.09.39.08-.57,0-1.04.69-1.1,2.11-.65-1.95-1.9-1.89-2.75-2.75v2.75c-.58-2.28-3.04-3.77-4.12-1.37-.68.02-1.04.22-1.12.58-1.37-2.14-3.41-3.93-5.75-3.33,2.7-2.15-.7-4.83-3.4-6.45ZM240.21,192.35s0,0,0,0c.28-.2.56-.41.84-.61-.26.23-.54.44-.84.61Z"/>
  <path class="st0" d="M67.11,151.98c2.47-3.47,8.18-5.17,12.36-6.87,3.44-1.39,8.55-2.53,12.36-4.12,3.32-2.99,6.98-4.82,10.99-5.49.92-.47,1.85-.91,2.75-1.37l6.87-4.12c5.97-3.05,21.82-12.29,24.72-17.86.17-.33-.14-.93,0-1.37,2.08-6.36.87-4.59,0-9.61-2.08-12.01-6.87-25.07-15.11-34.34-3.59-6.81-6.13-9.54-10.99-15.11-5.25-6.02-8.33-9.27-15.11-13.73-.71-.47-3.67-3.33-4.11-2.75.1,6.85-.19,13.76-.01,20.6.01.46,0,.92,0,1.37-3.84,14.8-6.94,29.58-13.5,43.5-5.61,11.89-13.48,21.37-20.84,32.04-1.21.64-2.2,1.31-3.01,2-3.1.59-5.96-3.05-9.35-4.75-1.6-.8-3.37-2.43-4.12-2.75,3.27-6.61,7.31-12.84,10.99-19.23,3.04-5.27,6.84-10.34,8.24-16.48,2-2.42,2.06-4.8,2.75-6.87,2.69-8.14,4.82-14.72,5.49-23.35.07-.91-.05-1.84,0-2.75,2.37-4.44,1.58-12.39,1.37-17.86-.52-1.18-.98-1.2-1.37,0,1.14-2.64.57-7.51-2.75-5.49-.17.21-1.29,1.33-1.37,1.37-.37.19-1.05-.2-1.37,0-1.58,1.21-2.04,2.12-1.37,2.75-1.23-.34-1.69.12-1.37,1.37-.28-1.04-1.2-1.04-2.75,0-1.96,1.66-2.46,2.17-4.12,4.12-.66.78-1.74,1.53-2.75,2.75-1.04,1.25-1.7,2.89-2.75,4.12-2.38,1.04-4.03,2.78-4.12,5.49-8.67,10.94-13.73,14.79-19.23,28.84-2.79,7.13-3.18,8.51-4.12,16.48.08,1.4.04,2.67-.06,3.86-.04-1.41-.07-2.73.06-3.86-2.35,2.52-1.42,7.82-2.68,10.12-1.14,2.08-2.32-1.45-4.18,3.62-.14.39.13.93,0,1.37-.63,2.2-.9,3.1-1.37,5.49-.03.03-.04.14-.06.28-.46,2.25-.92,3.78-1.32,6.59-.12.88.1,1.86,0,2.75-.05.45.04.92,0,1.37-.22,2.35-2.95,7.07-1.22,10.85,13.87,2.96,26.97,10.1,37.66,19.34,5.2,4.49,14.38,13.92,18.51,19.26,1.03,1.33,4.36,6.45,5.49,8.24.82,1.3,2.22,3.14,2.75,4.12.63,1.16,2.26,4.39,2.75,5.49,1.05,2.4.12,7.52,3.44,9.59.92-.22.53-1.17.68-1.35,6.15-7.39-.1-27.28-2.75-35.71-2.46-7.83-4.49-16.23-10.99-21.98ZM65.03,175.41c.28.46.53.9.71,1.3-.22-.42-.46-.85-.71-1.3ZM55.36,147.76c.26.05.52.08.77.11-.21,0-.38,0-.57,0-.07-.03-.13-.05-.2-.1ZM95.87,45.15s-.04-.03-.05-.04l.13-.25c-.03.11-.05.19-.07.3Z"/>
  <path class="st0" d="M162.99,173.98c.09,0,.18,0,.27-.02-.07,0-.16,0-.27.02Z"/>
</svg>