<?xml version="1.0" encoding="UTF-8"?>
<svg id="Layer_1" xmlns="http://www.w3.org/2000/svg" version="1.1" viewBox="0 0 300 300">
  <!-- Generator: Adobe Illustrator 29.1.0, SVG Export Plug-In . SVG Version: 2.1.0 Build 142)  -->
  <defs>
    <style>
      .st0 {
        fill: #fff;
        fill-rule: evenodd;
      }
    </style>
  </defs>
  <path class="st0" d="M273.7,229c-16-.4-28.4,1.2-38.7,5.6-3,1.2-7.8,1.2-8.2,5,1.6,1.6,1.8,4.2,3.2,6.4,2.4,4,6.6,9.4,10.4,12.2,4.2,3.2,8.4,6.4,12.8,9.2,7.8,4.8,16.6,7.6,24.2,12.4,4.4,2.8,8.8,6.4,13.2,9.4,2.2,1.6,3.6,4.2,6.4,5.2v-.6c-1.4-1.8-1.8-4.4-3.2-6.4-2-2-4-3.8-6-5.8-5.8-7.8-13-14.6-20.8-20.2-6.4-4.4-20.4-10.4-23-17.8l-.4-.4c4.4-.4,9.6-2,13.8-3.2,6.8-1.8,13-1.4,20-3.2,3.2-.8,6.4-1.8,9.6-2.8v-1.8c-3.6-3.6-6.2-8.4-10-11.8-10.2-8.8-21.4-17.4-33-24.6-6.2-4-14.2-6.6-20.8-10-2.4-1.2-6.4-1.8-7.8-3.8-3.6-4.4-5.6-10.2-8.2-15.4-5.8-11-11.4-23.2-16.4-34.8-3.6-7.8-5.8-15.6-10.2-22.8-20.6-34.1-42.9-54.7-77.3-74.9-7.4-4.2-16.2-6-25.6-8.2-5-.2-10-.6-15-.8-3.2-1.4-6.4-5.2-9.2-7C42.2,10.7,12.8-4.9,4.4,15.8c-5.4,13,8,25.8,12.6,32.4,3.4,4.6,7.8,9.8,10.2,15,1.4,3.4,1.8,7,3.2,10.6,3.2,8.8,6.2,18.6,10.4,26.8,2.2,4.2,4.6,8.6,7.4,12.4,1.6,2.2,4.4,3.2,5,6.8-2.8,4-3,10-4.6,15-7.2,22.6-4.4,50.7,5.8,67.3,3.2,5,10.8,16,21,11.8,9-3.6,7-15,9.6-25,.6-2.4.2-4,1.4-5.6v.4c2.8,5.6,5.6,11,8.2,16.6,6.2,9.8,17,20,26,26.8,4.8,3.6,8.6,9.8,14.6,12v-.6h-.4c-1.2-1.8-3-2.6-4.6-4-3.6-3.6-7.6-8-10.4-12-8.4-11.2-15.8-23.6-22.4-36.4-3.2-6.2-6-13-8.6-19.2-1.2-2.4-1.2-6-3.2-7.2-3,4.4-7.4,8.2-9.6,13.6-3.8,8.6-4.2,19.2-5.6,30.3-.8.2-.4,0-.8.4-6.4-1.6-8.6-8.2-11-13.8-6-14.2-7-37.1-1.8-53.5,1.4-4.2,7.4-17.4,5-21.4-1.2-3.8-5.2-6-7.4-9-2.6-3.8-5.4-8.6-7.2-12.8-4.8-11.2-7.2-23.6-12.4-34.8-2.4-5.2-6.6-10.6-10-15.4-3.8-5.4-8-9.2-11-15.6-1-2.2-2.4-5.8-.8-8.2.4-1.6,1.2-2.2,2.8-2.6,2.6-2.2,10,.6,12.6,1.8,7.4,3,13.6,5.8,19.8,10,2.8,2,5.8,5.8,9.4,6.8h4.2c6.4,1.4,13.6.4,19.6,2.2,10.6,3.4,20.2,8.4,28.8,13.8,26.2,16.6,47.7,40.3,62.3,68.5,2.4,4.6,3.4,8.8,5.6,13.6,4.2,9.8,9.4,19.8,13.6,29.4,4.2,9.4,8.2,19,14.2,26.8,3,4.2,15,6.4,20.4,8.6,4,1.8,10.2,3.4,13.8,5.6,6.8,4.2,13.6,9,20,13.6,3.2,2.4,13.2,7.4,13.8,11.4"/>
  <path class="st0" d="M69.9,55c-2.8,0-5.5.3-8.2,1v.4h.4c1.6,3.2,4.4,5.4,6.4,8.2,1.6,3.2,3,6.4,4.6,9.6.2-.2.4-.4.4-.4,2.8-2,4.2-5.2,4.2-10-1.2-1.4-1.4-2.8-2.4-4.2-1.2-2-3.8-3-5.4-4.6"/>
</svg>