<?xml version="1.0" encoding="UTF-8"?>
<svg id="Layer_1" xmlns="http://www.w3.org/2000/svg" version="1.1" viewBox="0 0 300 300">
  <!-- Generator: Adobe Illustrator 29.1.0, SVG Export Plug-In . SVG Version: 2.1.0 Build 142)  -->
  <defs>
    <style>
      .st0 {
        fill: #fff;
      }
    </style>
  </defs>
  <path class="st0" d="M11.2,0h277.5c6.2,0,11.2,5,11.2,11.2v277.5c0,6.2-5,11.2-11.2,11.2H11.2c-6.2,0-11.2-5-11.2-11.2V11.2C0,5,5,0,11.2,0ZM166.8,159.6v-24.6H60v24.6h38.1v109.6h30.3v-109.6h38.3ZM178.9,266.3c4.9,2.5,10.7,4.4,17.4,5.6,6.7,1.2,13.7,1.9,21.1,1.9s14.1-.7,20.6-2.1c6.5-1.4,12.2-3.6,17.1-6.8s8.8-7.3,11.6-12.3,4.3-11.4,4.3-18.9-.8-10.2-2.4-14.3c-1.6-4.1-4-7.7-7.1-10.9s-6.8-6-11.1-8.6c-4.3-2.5-9.1-4.9-14.5-7.2-4-1.6-7.5-3.2-10.6-4.7-3.1-1.5-5.8-3.1-8-4.7-2.2-1.6-3.9-3.3-5.1-5.1-1.2-1.8-1.8-3.8-1.8-6s.5-3.9,1.6-5.6c1.1-1.7,2.6-3.1,4.5-4.3,1.9-1.2,4.3-2.1,7.2-2.8,2.8-.7,6-1,9.4-1s5.2.2,8,.6c2.8.4,5.6,1,8.4,1.7,2.8.8,5.6,1.8,8.2,2.9,2.7,1.2,5.1,2.6,7.4,4.1v-28c-4.6-1.7-9.6-3-15-3.9-5.4-.8-11.7-1.3-18.7-1.3s-13.9.8-20.3,2.3c-6.4,1.5-12,3.9-16.9,7.2s-8.7,7.4-11.5,12.4c-2.8,5-4.2,11-4.2,18s2.6,16.5,7.8,22.8c5.2,6.3,13,11.6,23.6,16,4.1,1.7,8,3.3,11.6,5,3.6,1.6,6.7,3.3,9.3,5.1,2.6,1.7,4.7,3.6,6.2,5.7s2.3,4.4,2.3,7-.5,3.7-1.4,5.4c-.9,1.7-2.4,3.1-4.3,4.3-1.9,1.2-4.3,2.2-7.2,2.9-2.9.7-6.2,1-10,1-6.5,0-13-1.1-19.4-3.4-6.4-2.3-12.3-5.7-17.8-10.2v29.9Z"/>
</svg>