<?xml version="1.0" encoding="UTF-8"?>
<svg id="Layer_1" xmlns="http://www.w3.org/2000/svg" version="1.1" viewBox="0 0 300 300">
  <!-- Generator: Adobe Illustrator 29.1.0, SVG Export Plug-In . SVG Version: 2.1.0 Build 142)  -->
  <defs>
    <style>
      .st0 {
        fill: #fff;
      }
    </style>
  </defs>
  <path class="st0" d="M150,300C67.29,300,0,232.71,0,150S67.29,0,150,0s150,67.29,150,150-67.29,150-150,150ZM150,30c-66.17,0-120,53.83-120,120s53.83,120,120,120,120-53.83,120-120S216.17,30,150,30Z"/>
  <path class="st0" d="M198.69,186.71h24.01v-57.65l-27.05-27.05-16.98,16.98,20.02,20.02v47.71ZM222.76,198.75h-83.75l-20.02-20.02,8.49-8.49,16.54,16.54h34.02l-33.52-33.58,8.55-8.55,33.52,33.52v-34.02l-16.47-16.47,8.42-8.43-41.62-41.82H53.29l23.95,23.95v.06h49.67l17.55,17.55-25.66,25.66-17.54-17.55v-13.62h-24.01v23.56l41.56,41.56-16.91,16.92,27.05,27.05h117.78l-23.95-23.83Z"/>
</svg>